<?xml version="1.0" encoding="iso-8859-1"?>
<!-- Generator: Adobe Illustrator 19.0.0, SVG Export Plug-In . SVG Version: 6.00 Build 0)  -->
<svg version="1.1" id="Layer_1" xmlns="http://www.w3.org/2000/svg" xmlns:xlink="http://www.w3.org/1999/xlink" x="0px" y="0px"
	 viewBox="0 0 511.99 511.99" style="enable-background:new 0 0 511.99 511.99;" xml:space="preserve">
<g>
	<g>
		<g>
			<path d="M67.123,280.459c-4.164,4.156-4.164,10.905,0,15.062c4.164,4.188,10.922,4.188,15.086,0
				c4.164-4.156,4.164-10.905,0-15.062C78.045,276.271,71.287,276.271,67.123,280.459z"/>
			<path d="M387.117,280.46c-4.155,4.156-4.155,10.905,0,15.062c4.156,4.188,10.922,4.188,15.094,0
				c4.156-4.156,4.156-10.905,0-15.062C398.039,276.272,391.273,276.272,387.117,280.46z"/>
			<path d="M234.66,277.335h-63.999c-5.891,0-10.664,4.766-10.664,10.655c0,5.891,4.773,10.656,10.664,10.656h63.999
				c5.89,0,10.671-4.766,10.671-10.656S240.55,277.335,234.66,277.335z"/>
			<path d="M501.334,309.334h-10.688v-10.688h10.688c5.875,0,10.656-4.766,10.656-10.656c0-9.437-3.781-22.976-21.844-33.812
				c-9.905-5.938-23.374-10.641-40.062-13.977c-27.391-5.483-54.296-5.546-55.437-5.546h-74.655c0-5.891-4.781-10.664-10.655-10.664
				c-5.906,0-10.688,4.773-10.688,10.664h-42.654v-32c0-5.891-4.773-10.664-10.664-10.664c0-5.89-4.781-10.663-10.671-10.663
				c-5.891,0-10.664,4.773-10.664,10.663v0.602c-79.319,4.453-124.544,32.867-138.497,43.172c-0.961-0.195-1.938-0.367-2.922-0.516
				l21.593-25.734c1.609-1.922,2.492-4.352,2.492-6.859v-21.327c0-5.891-4.773-10.672-10.664-10.672H10.664
				C4.773,170.657,0,175.438,0,181.329v96.006c0,5.875,4.773,10.655,10.664,10.655h10.671c0,29.405,23.921,53.343,53.327,53.343
				c11.984,0,23.054-3.984,31.968-10.688h202.707c2.297,0,4.546-0.75,6.39-2.125l29.016-21.765
				c7.625,20.171,27.109,34.577,49.905,34.577c25.765,0,47.312-18.359,52.28-42.687h22.406v10.688h-10.688
				c-5.875,0-10.656,4.765-10.656,10.655c0,5.89,4.781,10.656,10.656,10.656h42.687c5.875,0,10.656-4.766,10.656-10.656
				S507.209,309.334,501.334,309.334z M25.796,266.655h-4.461v-74.663h63.999v6.781l-35.109,41.835
				C39.389,246.225,30.718,255.436,25.796,266.655z M74.663,319.989c-17.641,0-32-14.343-32-31.999
				c0-17.647,14.359-31.999,32-31.999c17.648,0,32,14.352,32,31.999C106.663,305.646,92.311,319.989,74.663,319.989z
				 M108.029,246.428c19.531-11.741,61.225-31.022,126.631-32.944v21.312c-24.164,0.516-83.631,2.96-123.287,14.562
				C110.295,248.335,109.185,247.358,108.029,246.428z M277.339,309.334h-153.81c2.867-6.547,4.469-13.75,4.469-21.344
				c0-7.062-1.391-13.812-3.898-19.983c47.202-11.852,120.427-12.016,121.232-12.016h32.007V309.334z M341.618,282.444
				l-35.843,26.89h-7.125v-53.343h53.374C346.368,263.514,342.649,272.585,341.618,282.444z M394.648,319.989
				c-17.624,0-31.999-14.343-31.999-31.999c0-17.647,14.375-31.999,31.999-31.999c17.655,0,31.999,14.352,31.999,31.999
				C426.647,305.646,412.304,319.989,394.648,319.989z M446.929,277.335c-1.281-6.234-3.641-12.062-6.875-17.297
				c1.938,0.328,3.891,0.688,5.844,1.078c22.624,4.524,34.062,10.602,39.687,16.219H446.929z"/>
		</g>
	</g>
</g>
<g>
</g>
<g>
</g>
<g>
</g>
<g>
</g>
<g>
</g>
<g>
</g>
<g>
</g>
<g>
</g>
<g>
</g>
<g>
</g>
<g>
</g>
<g>
</g>
<g>
</g>
<g>
</g>
<g>
</g>
</svg>
