<svg width="76" height="76" viewBox="0 0 76 76" fill="none" xmlns="http://www.w3.org/2000/svg">
<circle opacity="0.6" cx="38" cy="38" r="37" stroke="#FCFCFC" stroke-width="2"/>
<path opacity="0.8" d="M37.6495 50.548C37.3562 50.548 37.1215 50.46 36.9455 50.284C36.7695 50.108 36.6815 49.8733 36.6815 49.58V39.944H27.1335C26.8402 39.944 26.6055 39.856 26.4295 39.68C26.2535 39.504 26.1655 39.2693 26.1655 38.976V38.36C26.1655 38.0667 26.2535 37.832 26.4295 37.656C26.6055 37.48 26.8402 37.392 27.1335 37.392H36.6815V28.02C36.6815 27.7267 36.7695 27.492 36.9455 27.316C37.1215 27.14 37.3562 27.052 37.6495 27.052H38.3095C38.6029 27.052 38.8375 27.14 39.0135 27.316C39.1895 27.492 39.2775 27.7267 39.2775 28.02V37.392H48.8695C49.1629 37.392 49.3975 37.48 49.5735 37.656C49.7495 37.832 49.8375 38.0667 49.8375 38.36V38.976C49.8375 39.2693 49.7495 39.504 49.5735 39.68C49.3975 39.856 49.1629 39.944 48.8695 39.944H39.2775V49.58C39.2775 49.8733 39.1895 50.108 39.0135 50.284C38.8375 50.46 38.6029 50.548 38.3095 50.548H37.6495Z" fill="#FCFCFC"/>
</svg>
