<svg width="84" height="132" viewBox="0 0 84 132" fill="none" xmlns="http://www.w3.org/2000/svg">
<path d="M57.7901 102.46V107.847C57.7901 109.027 57.4607 109.93 56.802 110.558C56.1433 111.192 55.2338 111.51 54.0736 111.51C53.4073 111.51 52.7973 111.416 52.2434 111.23C51.6894 111.05 51.2179 110.793 50.8287 110.457L51.536 109.113C52.2471 109.688 53.078 109.975 54.0287 109.975C54.6873 109.975 55.1739 109.811 55.4883 109.482C55.8102 109.146 55.9711 108.631 55.9711 107.937V107.455C55.4471 108.097 54.7061 108.418 53.748 108.418C52.7524 108.418 51.9852 108.138 51.4462 107.578C50.9147 107.011 50.649 106.197 50.649 105.137V102.46H52.468V105.025C52.468 105.637 52.6139 106.1 52.9059 106.414C53.1978 106.727 53.6094 106.884 54.141 106.884C54.7024 106.884 55.1477 106.72 55.4771 106.391C55.8064 106.063 55.9711 105.566 55.9711 104.902V102.46H57.7901ZM66.0108 109.628C65.6365 109.882 65.1649 110.08 64.596 110.222C64.0346 110.364 63.4358 110.434 62.7996 110.434C62.0061 110.434 61.3324 110.337 60.7785 110.143C60.2245 109.942 59.8054 109.665 59.521 109.314C59.2365 108.956 59.0943 108.549 59.0943 108.094C59.0943 107.676 59.2103 107.306 59.4424 106.985C59.6744 106.664 59.9925 106.425 60.3967 106.268C60.0898 106.104 59.8503 105.88 59.6782 105.596C59.5134 105.312 59.4311 104.995 59.4311 104.644C59.4311 104.218 59.5621 103.83 59.8241 103.479C60.0861 103.128 60.4828 102.848 61.0143 102.639C61.5457 102.43 62.197 102.326 62.968 102.326C63.477 102.326 63.9747 102.378 64.4613 102.482C64.9478 102.58 65.3708 102.714 65.7301 102.886L65.2248 104.274C64.5361 103.953 63.8063 103.793 63.0353 103.793C62.4515 103.793 62.0098 103.882 61.7104 104.062C61.4185 104.233 61.2725 104.469 61.2725 104.767C61.2725 105.044 61.3698 105.256 61.5645 105.406C61.7666 105.548 62.0697 105.618 62.4739 105.618H64.6185V107.052H62.3617C61.905 107.052 61.5532 107.13 61.3062 107.287C61.0592 107.444 60.9357 107.672 60.9357 107.97C60.9357 108.284 61.0929 108.53 61.4073 108.71C61.7291 108.881 62.2194 108.967 62.8781 108.967C63.3422 108.967 63.8063 108.908 64.2704 108.788C64.7345 108.661 65.1275 108.486 65.4494 108.262L66.0108 109.628ZM76.0487 102.326C76.9771 102.326 77.6992 102.598 78.2157 103.143C78.7322 103.681 78.9904 104.461 78.9904 105.484V110.3H77.1715V105.54C77.1715 104.988 77.0255 104.573 76.7336 104.297C76.4494 104.013 76.0711 103.871 75.5996 103.871C75.0831 103.871 74.6711 104.021 74.3645 104.319C74.0578 104.61 73.9041 105.055 73.9041 105.652V110.3H72.0852V105.54C72.0852 104.988 71.9504 104.573 71.681 104.297C71.4115 104.013 71.0445 103.871 70.5806 103.871C70.0715 103.871 69.6636 104.021 69.3566 104.319C69.0497 104.61 68.8963 105.055 68.8963 105.652V110.3H67.0773V102.46H68.8401V103.423C69.0797 103.072 69.3978 102.804 69.7945 102.617C70.1911 102.423 70.648 102.326 71.1645 102.326C71.7034 102.326 72.175 102.426 72.5792 102.628C72.9834 102.822 73.2943 103.106 73.5111 103.479C73.7806 103.106 74.1322 102.822 74.5666 102.628C75.008 102.426 75.502 102.326 76.0487 102.326ZM50.5396 113.52H53.2174C53.8574 113.52 54.4217 113.643 54.9101 113.89C55.4041 114.13 55.7859 114.472 56.0553 114.914C56.3304 115.357 56.468 115.872 56.468 116.46C56.468 117.048 56.3304 117.563 56.0553 118.006C55.7859 118.448 55.4041 118.792 54.9101 119.039C54.4217 119.28 53.8574 119.4 53.2174 119.4H50.5396V113.52ZM53.1501 118.283C53.7396 118.283 54.2083 118.12 54.5564 117.796C54.9101 117.465 55.0869 117.02 55.0869 116.46C55.0869 115.9 54.9101 115.458 54.5564 115.133C54.2083 114.802 53.7396 114.637 53.1501 114.637H51.9038V118.283H53.1501ZM57.4041 114.881H58.7178V119.4H57.4041V114.881ZM58.061 114.251C57.8196 114.251 57.6231 114.181 57.4715 114.041C57.3199 113.901 57.2441 113.727 57.2441 113.52C57.2441 113.313 57.3199 113.139 57.4715 112.999C57.6231 112.859 57.8196 112.789 58.061 112.789C58.3024 112.789 58.4989 112.856 58.6504 112.991C58.802 113.125 58.8778 113.293 58.8778 113.495C58.8778 113.713 58.802 113.895 58.6504 114.041C58.4989 114.181 58.3024 114.251 58.061 114.251ZM64.6107 114.881V118.644C64.6107 119.473 64.3946 120.089 63.9623 120.492C63.53 120.895 62.8984 121.097 62.0676 121.097C61.6297 121.097 61.2142 121.044 60.8212 120.937C60.4283 120.831 60.1026 120.677 59.8444 120.475L60.3665 119.534C60.5574 119.691 60.7988 119.814 61.0907 119.904C61.3826 119.999 61.6746 120.047 61.9665 120.047C62.4212 120.047 62.7553 119.943 62.9686 119.736C63.1876 119.534 63.297 119.226 63.297 118.812V118.619C62.9546 118.994 62.4774 119.182 61.8654 119.182C61.45 119.182 61.0683 119.092 60.7202 118.913C60.3777 118.728 60.1054 118.47 59.9033 118.14C59.7012 117.81 59.6002 117.429 59.6002 116.998C59.6002 116.566 59.7012 116.186 59.9033 115.855C60.1054 115.525 60.3777 115.27 60.7202 115.091C61.0683 114.906 61.45 114.814 61.8654 114.814C62.5223 114.814 63.0219 115.029 63.3644 115.46V114.881H64.6107ZM62.1265 118.106C62.4746 118.106 62.7581 118.006 62.977 117.804C63.2016 117.597 63.3139 117.328 63.3139 116.998C63.3139 116.667 63.2016 116.401 62.977 116.2C62.7581 115.992 62.4746 115.889 62.1265 115.889C61.7784 115.889 61.4921 115.992 61.2676 116.2C61.043 116.401 60.9307 116.667 60.9307 116.998C60.9307 117.328 61.043 117.597 61.2676 117.804C61.4921 118.006 61.7784 118.106 62.1265 118.106ZM65.8334 114.881H67.1471V119.4H65.8334V114.881ZM66.4902 114.251C66.2488 114.251 66.0523 114.181 65.9008 114.041C65.7492 113.901 65.6734 113.727 65.6734 113.52C65.6734 113.313 65.7492 113.139 65.9008 112.999C66.0523 112.859 66.2488 112.789 66.4902 112.789C66.7316 112.789 66.9281 112.856 67.0797 112.991C67.2313 113.125 67.3071 113.293 67.3071 113.495C67.3071 113.713 67.2313 113.895 67.0797 114.041C66.9281 114.181 66.7316 114.251 66.4902 114.251ZM71.095 119.182C70.9659 119.277 70.8059 119.35 70.615 119.4C70.4297 119.445 70.236 119.467 70.0337 119.467C69.4891 119.467 69.0709 119.33 68.7789 119.056C68.487 118.781 68.341 118.378 68.341 117.846V113.881H69.6547V114.982H70.775V115.99H69.6547V117.829C69.6547 118.02 69.7024 118.168 69.7979 118.274C69.8933 118.375 70.0309 118.426 70.2108 118.426C70.4129 118.426 70.5925 118.37 70.7497 118.258L71.095 119.182ZM76.295 114.881V119.4H75.0403V118.879C74.7146 119.271 74.2431 119.467 73.6255 119.467C73.1989 119.467 72.8115 119.372 72.4634 119.182C72.121 118.991 71.8515 118.72 71.655 118.367C71.4585 118.014 71.3603 117.605 71.3603 117.14C71.3603 116.676 71.4585 116.267 71.655 115.914C71.8515 115.561 72.121 115.29 72.4634 115.099C72.8115 114.909 73.1989 114.814 73.6255 114.814C74.2038 114.814 74.6557 114.996 74.9813 115.36V114.881H76.295ZM73.8529 118.392C74.1841 118.392 74.4592 118.28 74.6782 118.056C74.8971 117.826 75.0066 117.521 75.0066 117.14C75.0066 116.76 74.8971 116.457 74.6782 116.233C74.4592 116.004 74.1841 115.889 73.8529 115.889C73.516 115.889 73.2382 116.004 73.0192 116.233C72.8003 116.457 72.6908 116.76 72.6908 117.14C72.6908 117.521 72.8003 117.826 73.0192 118.056C73.2382 118.28 73.516 118.392 73.8529 118.392ZM79.1364 119.467C78.6255 119.467 78.2269 119.333 77.9406 119.064C77.6543 118.79 77.5111 118.403 77.5111 117.905V113.167H78.8248V117.829C78.8248 118.02 78.8725 118.168 78.968 118.274C79.069 118.375 79.2094 118.426 79.389 118.426C79.4564 118.426 79.5238 118.417 79.5911 118.4C79.6641 118.384 79.7203 118.364 79.7596 118.342L79.8185 119.358C79.5996 119.431 79.3722 119.467 79.1364 119.467Z" fill="#F2F2F2"/>
<path d="M12.4019 101.607C12.4306 101.642 12.456 101.671 12.4847 101.706C12.657 101.913 12.842 102.139 13.043 102.38C13.1419 102.501 13.2471 102.625 13.3524 102.753C13.8851 103.392 14.488 104.118 15.1227 104.875C15.3747 105.177 15.6331 105.486 15.8915 105.794C16.1499 106.103 16.4114 106.415 16.6698 106.724C16.6857 106.743 16.7016 106.762 16.7176 106.781C16.8356 106.921 16.9505 107.061 17.0685 107.198C17.0876 107.22 17.1068 107.245 17.1291 107.268C17.2216 107.376 17.3109 107.484 17.4002 107.592C17.4576 107.662 17.515 107.729 17.5725 107.799C17.5885 107.818 17.6044 107.837 17.6203 107.856C17.6554 107.901 17.6937 107.942 17.7288 107.987C17.7734 108.041 17.8181 108.095 17.8628 108.149C17.8819 108.175 17.9042 108.197 17.9233 108.222C17.9776 108.286 18.0318 108.353 18.0861 108.416C18.1243 108.461 18.1594 108.505 18.1976 108.55C18.2423 108.604 18.287 108.658 18.3317 108.712C18.3699 108.76 18.4114 108.805 18.4496 108.852C18.4688 108.875 18.488 108.9 18.5103 108.922C18.5709 108.995 18.6315 109.069 18.6921 109.139C18.7113 109.161 18.7303 109.183 18.7495 109.205C18.7846 109.25 18.8228 109.291 18.8579 109.333C18.8962 109.377 18.9313 109.422 18.9696 109.466C18.9887 109.489 19.0047 109.508 19.0238 109.53C19.2471 109.794 19.4545 110.045 19.6522 110.278C19.6618 110.287 19.6713 110.3 19.6809 110.31C19.7415 110.38 19.7958 110.446 19.8532 110.513C19.8851 110.551 19.9169 110.59 19.9456 110.625C19.9584 110.64 19.9744 110.66 19.9871 110.675C20.0828 110.787 20.1689 110.892 20.2551 110.994C20.3604 111.118 20.4593 111.235 20.5454 111.337C20.5709 111.369 20.5932 111.395 20.6155 111.423L20.6187 111.426C20.7113 111.538 20.7941 111.636 20.8612 111.716C20.8612 111.716 20.8612 111.716 20.8643 111.719C20.8962 111.757 20.9282 111.792 20.9536 111.824C20.96 111.83 20.9664 111.834 20.9728 111.84C21.0079 111.865 21.0653 111.869 21.1004 111.84C21.1068 111.834 21.1132 111.83 21.1195 111.824C21.1419 111.799 21.1674 111.767 21.1961 111.735C21.2152 111.709 21.2376 111.684 21.2599 111.659C21.3109 111.598 21.3683 111.531 21.4289 111.458C21.4513 111.433 21.4704 111.41 21.4896 111.385C21.4959 111.379 21.4991 111.372 21.5055 111.366C21.5374 111.328 21.5725 111.286 21.6075 111.245C21.6075 111.242 21.6108 111.242 21.6108 111.242C21.6395 111.207 21.6713 111.169 21.7033 111.13C21.7256 111.102 21.7511 111.073 21.7766 111.041C21.8659 110.933 21.9616 110.822 22.0637 110.698C22.0765 110.682 22.0892 110.666 22.1052 110.65C22.1466 110.599 22.1945 110.545 22.2391 110.491C22.2806 110.443 22.3221 110.392 22.3635 110.341C22.5071 110.17 22.6602 109.988 22.8197 109.797C22.8516 109.762 22.8803 109.724 22.9122 109.689C22.9218 109.676 22.9345 109.664 22.9441 109.651C22.9887 109.597 23.0366 109.543 23.0812 109.485C23.1291 109.428 23.1769 109.371 23.228 109.31C23.2567 109.275 23.2854 109.244 23.3141 109.209C23.3268 109.193 23.3396 109.18 23.3524 109.164C23.4193 109.081 23.4895 108.999 23.5597 108.916C23.5788 108.894 23.5948 108.875 23.6139 108.852C23.6362 108.827 23.6586 108.801 23.6777 108.776C23.85 108.572 24.0254 108.362 24.204 108.146C24.2455 108.095 24.2902 108.044 24.3316 107.993C24.338 107.987 24.3444 107.977 24.3508 107.971C24.405 107.904 24.4624 107.837 24.5198 107.77C24.5677 107.716 24.6123 107.659 24.6602 107.605C24.7495 107.5 24.8388 107.392 24.9282 107.284C24.9536 107.252 24.9792 107.22 25.0079 107.188C25.1227 107.051 25.2376 106.914 25.3524 106.778C25.3683 106.762 25.3811 106.743 25.397 106.727C25.6554 106.418 25.9138 106.106 26.1753 105.798C26.4337 105.489 26.6921 105.18 26.9441 104.878C27.5757 104.121 28.1817 103.395 28.7144 102.756C28.8197 102.629 28.9249 102.504 29.0238 102.384C29.2248 102.142 29.4098 101.916 29.5821 101.709C29.6108 101.674 29.6331 101.645 29.6618 101.614C27.3842 99.5454 24.3572 98.2822 21.0366 98.2822C17.7064 98.2822 14.6793 99.5422 12.4019 101.607Z" fill="white"/>
<path d="M24.7108 117.163C24.529 116.998 24.242 117.046 24.1175 117.259L22.1718 120.632L21.6901 121.462C21.6008 121.615 21.4381 121.71 21.2595 121.71H21.0298H20.8065H20.8001C20.6215 121.71 20.4556 121.615 20.3663 121.459L20.3632 121.456L17.9389 117.252C17.8177 117.039 17.5274 116.995 17.3456 117.157L15.537 118.767L13.0234 121.007C15.2148 122.76 17.9964 123.81 21.0266 123.81C24.0569 123.81 26.8385 122.76 29.033 121.004L28.0665 120.142L24.7108 117.163Z" fill="white"/>
<path d="M11.0272 109.861C10.4403 108.878 9.7513 107.723 9.17074 106.746C9.12927 106.676 9.08779 106.606 9.04632 106.539C8.51362 107.942 8.22021 109.463 8.22021 111.051C8.22021 112.788 8.56786 114.44 9.19944 115.948L9.68751 115.353L12.3095 112.155C12.3127 112.152 12.335 112.126 12.3637 112.088C12.3606 112.085 12.3573 112.082 12.3542 112.075C12.2744 111.951 11.7194 111.022 11.0272 109.861Z" fill="white"/>
<path d="M21.0526 90C9.42583 90 0 99.3959 0 110.987C0 122.579 9.42583 131.975 21.0526 131.975C32.6794 131.975 42.1053 122.579 42.1053 110.987C42.1053 99.3959 32.6794 90 21.0526 90ZM37.5119 122.054H37.5024H30.2392C30.2297 122.054 30.2169 122.05 30.2074 122.047C30.2041 122.05 30.2041 122.05 30.201 122.054L30.1978 122.05C27.7098 124.112 24.5135 125.353 21.0271 125.353C17.5407 125.353 14.3445 124.112 11.8596 122.05H11.8565C11.8533 122.047 11.8533 122.047 11.8501 122.044C11.8405 122.047 11.8309 122.05 11.8182 122.05H4.55502H4.54545C4.40192 122.05 4.32536 121.885 4.41467 121.777L8.10526 117.275C7.18982 115.391 6.67624 113.278 6.67624 111.045C6.67624 103.144 13.1005 96.7391 21.0271 96.7391C28.9538 96.7391 35.378 103.144 35.378 111.045C35.378 113.275 34.8644 115.388 33.9521 117.271L35.3525 118.977L37.6427 121.77L37.6491 121.777C37.7321 121.888 37.6555 122.054 37.5119 122.054Z" fill="white"/>
<path d="M32.8895 106.743C32.3057 107.72 31.6199 108.875 31.033 109.858C30.3377 111.022 29.7858 111.948 29.7093 112.076C29.7061 112.079 29.7029 112.082 29.6997 112.085L29.7475 112.146C29.7507 112.149 29.7507 112.152 29.7539 112.155L32.8576 115.942C33.486 114.433 33.8337 112.782 33.8337 111.048C33.8337 109.46 33.5402 107.942 33.0107 106.542C32.9693 106.609 32.9309 106.676 32.8895 106.743Z" fill="white"/>
<path d="M37.8 66C37.7147 66 37.6347 65.968 37.56 65.904C37.496 65.84 37.464 65.76 37.464 65.664C37.464 65.568 37.5013 65.472 37.576 65.376L40.36 61.744L37.752 58.304C37.6773 58.2187 37.64 58.1227 37.64 58.016C37.64 57.92 37.672 57.84 37.736 57.776C37.8 57.712 37.88 57.68 37.976 57.68H38.792C38.952 57.68 39.0907 57.7653 39.208 57.936L41.336 60.704L43.464 57.952C43.528 57.8667 43.5867 57.8027 43.64 57.76C43.704 57.7067 43.784 57.68 43.88 57.68H44.664C44.76 57.68 44.84 57.712 44.904 57.776C44.968 57.84 45 57.92 45 58.016C45 58.1227 44.9627 58.2187 44.888 58.304L42.248 61.776L45.032 65.376C45.1067 65.472 45.144 65.568 45.144 65.664C45.144 65.76 45.112 65.84 45.048 65.904C44.984 65.968 44.904 66 44.808 66H43.96C43.8 66 43.6613 65.92 43.544 65.76L41.304 62.832L39.032 65.76C38.968 65.8347 38.904 65.8933 38.84 65.936C38.7867 65.9787 38.712 66 38.616 66H37.8Z" fill="#FCFCFC"/>
<g clip-path="url(#clip0)">
<path d="M43.3676 10.2674L47.364 10.0107C47.4551 10.66 47.6223 11.1432 47.8958 11.4905C48.3365 12.0341 48.9443 12.3059 49.7496 12.3059C50.3423 12.3059 50.8133 12.17 51.1324 11.8831C51.4363 11.6566 51.6187 11.2942 51.6187 10.9167C51.6187 10.5543 51.4515 10.207 51.1628 9.98051C50.8589 9.70871 50.1447 9.43691 49.0203 9.19532C47.1816 8.78762 45.8596 8.24402 45.0847 7.54943C44.3097 6.90014 43.869 5.94885 43.8994 4.93716C43.8994 4.24256 44.1122 3.54797 44.5072 2.97417C44.9631 2.32488 45.5861 1.81149 46.3307 1.52459C47.136 1.17729 48.2605 0.996094 49.6737 0.996094C51.4059 0.996094 52.7279 1.31319 53.6397 1.96248C54.5514 2.59668 55.0984 3.62347 55.2656 5.02775L51.3148 5.25425C51.2084 4.65026 50.9957 4.21236 50.6462 3.92547C50.2967 3.63857 49.8408 3.50267 49.2482 3.50267C48.7619 3.50267 48.3973 3.60837 48.1541 3.80467C47.9262 3.98587 47.7742 4.25766 47.7894 4.55966C47.7894 4.78616 47.911 4.99756 48.0933 5.13345C48.2909 5.31465 48.7619 5.48075 49.5065 5.63175C51.3452 6.02435 52.652 6.41694 53.4573 6.82464C54.2627 7.23233 54.8401 7.73063 55.1896 8.31952C55.5543 8.92352 55.7366 9.61811 55.7214 10.3278C55.7214 11.1734 55.4783 12.019 54.992 12.7287C54.4906 13.4686 53.7916 14.0424 52.9711 14.3897C52.1049 14.7672 51.0109 14.9635 49.7041 14.9635C47.3944 14.9635 45.7988 14.5256 44.9023 13.6347C44.0058 12.7438 43.474 11.6264 43.3676 10.2674ZM0.957308 14.737V1.23769H7.96237C9.25398 1.23769 10.2569 1.34339 10.9407 1.56989C11.6093 1.78129 12.2019 2.21918 12.597 2.80808C13.0376 3.45737 13.2504 4.21236 13.2352 4.99755C13.2808 6.32634 12.597 7.59473 11.4269 8.25912C10.9711 8.51582 10.4696 8.69702 9.95297 8.78762C10.3329 8.89332 10.7127 9.07452 11.047 9.28591C11.3054 9.49731 11.5181 9.73891 11.7156 9.99561C11.9436 10.2523 12.1411 10.5392 12.3083 10.8412L14.3444 14.7521H9.57308L7.32417 10.5996C7.03546 10.0711 6.79233 9.72381 6.5644 9.55771C6.26049 9.34631 5.8958 9.24061 5.53112 9.24061H5.16643V14.7219H0.957308V14.737ZM5.16643 6.70384H6.94428C7.32417 6.67364 7.68886 6.61324 8.05355 6.52264C8.32706 6.47734 8.57019 6.32634 8.73734 6.09984C9.14761 5.55625 9.08683 4.78616 8.58538 4.31806C8.31187 4.09156 7.78003 3.97076 7.02026 3.97076H5.16643V6.70384ZM0 26.3034L3.99638 26.0468C4.08755 26.696 4.2547 27.1792 4.52822 27.5265C4.95369 28.0701 5.5767 28.357 6.38206 28.357C6.97468 28.357 7.44573 28.2211 7.76483 27.9342C8.06874 27.6926 8.25109 27.3453 8.25109 26.9678C8.25109 26.6054 8.08394 26.2581 7.79523 26.0317C7.49132 25.7599 6.77714 25.4881 5.63748 25.2465C3.79884 24.8388 2.47685 24.2952 1.70188 23.6006C0.926918 22.9513 0.486252 22 0.516643 20.9883C0.516643 20.2937 0.729378 19.5991 1.12446 19.0253C1.58032 18.376 2.20333 17.8626 2.9479 17.5757C3.75326 17.2284 4.87771 17.0472 6.29088 17.0472C8.02316 17.0472 9.34515 17.3643 10.2569 18.0136C11.1686 18.6629 11.7004 19.6746 11.8676 21.0789L7.91679 21.3054C7.81042 20.7014 7.59769 20.2635 7.24819 19.9766C6.91389 19.6897 6.44284 19.5538 5.85022 19.5689C5.36397 19.5689 4.99928 19.6746 4.75615 19.886C4.51303 20.0672 4.37627 20.339 4.39146 20.641C4.39146 20.8675 4.51303 21.0789 4.69537 21.2148C4.89291 21.396 5.36397 21.5621 6.10854 21.7131C7.94718 22.1057 9.25398 22.4983 10.0593 22.906C10.8647 23.3137 11.4421 23.812 11.7916 24.4009C12.1563 25.0049 12.3386 25.6995 12.3386 26.394C12.3386 27.2396 12.0803 28.0701 11.6093 28.7798C11.1078 29.5197 10.4088 30.0935 9.58828 30.4408C8.72214 30.8183 7.62808 31.0146 6.32127 31.0146C4.01158 31.0146 2.41606 30.5767 1.51954 29.6858C0.62301 28.7798 0.121563 27.6624 0 26.3034H0Z" fill="white"/>
<path d="M20.2097 25.2466L23.887 26.3489C23.6894 27.27 23.2792 28.1458 22.7169 28.9158C22.2003 29.5953 21.5165 30.1238 20.7415 30.4711C19.9514 30.8184 18.9485 30.9996 17.7328 30.9996C16.2589 30.9996 15.0433 30.7882 14.1163 30.3654C13.1742 29.9426 12.3689 29.1876 11.6851 28.1156C11.0013 27.0435 10.667 25.6694 10.667 23.9933C10.667 21.7585 11.2596 20.0371 12.46 18.8442C13.6605 17.6514 15.3472 17.0474 17.5353 17.0474C19.2524 17.0474 20.5896 17.3947 21.5773 18.0742C22.5498 18.7687 23.2792 19.8257 23.7654 21.2451L20.0577 22.0605C19.9666 21.7434 19.8298 21.4263 19.6475 21.1545C19.4195 20.8374 19.1308 20.5958 18.7813 20.4146C18.4318 20.2334 18.0367 20.1579 17.6417 20.1579C16.6844 20.1579 15.955 20.5354 15.4535 21.3055C15.0737 21.8642 14.8761 22.7551 14.8761 23.9631C14.8761 25.458 15.104 26.4848 15.5599 27.0435C16.0158 27.6022 16.654 27.874 17.4897 27.874C18.2951 27.874 18.9029 27.6475 19.3132 27.2096C19.7234 26.7415 20.0273 26.0922 20.2097 25.2466ZM28.7951 17.2739H32.989V22.0001H37.578V17.2739H41.8023V30.7731H37.578V25.307H32.989V30.7731H28.7951V17.2739Z" fill="white"/>
<path d="M41.2251 24.0235C41.2251 21.8189 41.8481 20.0975 43.0789 18.8744C44.3098 17.6513 46.042 17.0322 48.2454 17.0322C50.5095 17.0322 52.2417 17.6362 53.4726 18.8442C54.7034 20.0522 55.3112 21.7434 55.3112 23.9178C55.3112 25.5032 55.0377 26.7867 54.5059 27.7984C53.9892 28.795 53.1839 29.6104 52.1962 30.154C51.1781 30.7127 49.9169 30.9996 48.4125 30.9996C46.8778 30.9996 45.6166 30.758 44.6137 30.2748C43.5804 29.7614 42.7294 28.9611 42.1672 27.9796C41.5442 26.9226 41.2251 25.6089 41.2251 24.0235ZM45.419 24.0386C45.419 25.3975 45.6773 26.379 46.1788 26.983C46.6802 27.5719 47.3792 27.8739 48.2606 27.8739C49.1571 27.8739 49.8561 27.587 50.3575 26.9981C50.859 26.4092 51.1021 25.3673 51.1021 23.8574C51.1021 22.589 50.8438 21.6528 50.3271 21.079C49.8105 20.4901 49.1115 20.2032 48.2302 20.2032C47.4552 20.173 46.7106 20.5052 46.194 21.0941C45.6773 21.683 45.419 22.6645 45.419 24.0386ZM59.6115 24.0235C59.6115 21.8189 60.2345 20.0975 61.4653 18.8744C62.6962 17.6513 64.4284 17.0322 66.6318 17.0322C68.8959 17.0322 70.6433 17.6362 71.859 18.8442C73.0746 20.0522 73.6976 21.7434 73.6976 23.9178C73.6976 25.5032 73.4241 26.7867 72.8923 27.7984C72.3756 28.795 71.5703 29.6104 70.5826 30.154C69.5645 30.7127 68.3033 30.9996 66.7989 30.9996C65.2642 30.9996 64.003 30.758 63.0001 30.2748C61.9668 29.7614 61.1158 28.9611 60.5536 27.9796C59.9306 26.9226 59.6115 25.6089 59.6115 24.0235ZM63.8054 24.0386C63.8054 25.3975 64.0637 26.379 64.5652 26.983C65.0666 27.5719 65.7656 27.8739 66.647 27.8739C67.5435 27.8739 68.2425 27.587 68.7439 26.9981C69.2454 26.4092 69.4885 25.3673 69.4885 23.8574C69.4885 22.589 69.2302 21.6528 68.7135 21.079C68.1969 20.4901 67.4979 20.2032 66.6166 20.2032C65.8416 20.173 65.0818 20.5052 64.5804 21.0941C64.0637 21.683 63.8054 22.6645 63.8054 24.0386Z" fill="white"/>
<path d="M73.2569 17.2739H77.4508V27.4512H84V30.7732H73.2417V17.2739H73.2569Z" fill="white"/>
<path d="M68.6138 16.4972C72.8326 13.3306 74.1349 7.96453 71.5225 4.51174C68.9102 1.05894 63.3724 0.826907 59.1535 3.99347C54.9347 7.16004 53.6324 12.5261 56.2448 15.9789C58.8572 19.4317 64.3949 19.6637 68.6138 16.4972Z" stroke="white" stroke-width="1.17433" stroke-miterlimit="10"/>
<path d="M68.6138 16.4972C72.8326 13.3306 74.1349 7.96453 71.5225 4.51174C68.9102 1.05894 63.3724 0.826907 59.1535 3.99347C54.9347 7.16004 53.6324 12.5261 56.2448 15.9789C58.8572 19.4317 64.3949 19.6637 68.6138 16.4972Z" stroke="white" stroke-width="1.17433" stroke-miterlimit="10"/>
<path d="M59.6266 9.25562L61.1461 8.19864L63.0151 10.8411C63.3342 11.2639 63.5774 11.7169 63.7597 12.2152C63.8661 12.5927 63.8357 13.0004 63.6837 13.3628C63.4862 13.8158 63.1671 14.1933 62.7416 14.4651C62.2402 14.8124 61.8147 15.0087 61.45 15.0691C61.1005 15.1295 60.7358 15.0691 60.4015 14.9181C60.0368 14.7369 59.7177 14.4802 59.4746 14.148L60.7814 12.94C60.8878 13.1061 61.0245 13.2571 61.1765 13.3779C61.2829 13.4534 61.4044 13.4987 61.5412 13.4987C61.6475 13.4987 61.7539 13.4534 61.8299 13.393C61.9818 13.3024 62.0882 13.1212 62.073 12.94C62.0274 12.6833 61.9211 12.4266 61.7539 12.2303L59.6266 9.25562ZM64.1852 10.9317L65.568 9.84452C65.7199 10.0257 65.9175 10.1616 66.1302 10.2371C66.4341 10.3277 66.7532 10.2673 67.0115 10.071C67.1939 9.95022 67.3458 9.78412 67.4066 9.57272C67.4978 9.30092 67.3458 8.99893 67.0723 8.90833C67.0267 8.89323 66.9811 8.87813 66.9355 8.87813C66.7532 8.86303 66.4341 8.93853 65.963 9.13483C65.1881 9.45192 64.5803 9.57272 64.1244 9.52742C63.6837 9.48212 63.2735 9.25562 63.0303 8.87813C62.848 8.62143 62.7568 8.31943 62.7416 8.01744C62.7416 7.67014 62.8328 7.32284 63.0303 7.03595C63.319 6.62825 63.6685 6.28095 64.094 6.00916C64.7322 5.57126 65.2944 5.35986 65.7807 5.35986C66.2669 5.35986 66.7228 5.58636 67.1483 6.05446L65.7807 7.12655C65.5072 6.77925 64.9905 6.70375 64.641 6.97555L64.5955 7.02085C64.4435 7.11145 64.3371 7.24734 64.2764 7.41344C64.2308 7.53424 64.2612 7.67014 64.3371 7.77584C64.3979 7.85134 64.4891 7.91174 64.5955 7.91174C64.717 7.92684 64.9297 7.86644 65.2337 7.73054C65.9934 7.41344 66.5709 7.23224 66.9659 7.17185C67.3002 7.11145 67.6497 7.14165 67.9688 7.27754C68.2575 7.39834 68.5007 7.60974 68.6678 7.86644C68.8805 8.16844 69.0021 8.53083 69.0173 8.90833C69.0325 9.30092 68.9261 9.67842 68.7134 10.0106C68.4399 10.4183 68.0904 10.7656 67.6801 11.0374C66.8444 11.6112 66.1606 11.8528 65.6135 11.7622C65.0209 11.6716 64.5347 11.3696 64.1852 10.9317Z" fill="white"/>
</g>
<defs>
<clipPath id="clip0">
<rect width="84" height="31" fill="white"/>
</clipPath>
</defs>
</svg>
