<svg width="264" height="49" viewBox="0 0 264 49" fill="none" xmlns="http://www.w3.org/2000/svg">
<g clip-path="url(#clip0)">
<path d="M214.661 18.5855L219.513 18.2709C219.624 19.0668 219.827 19.6591 220.159 20.0848C220.694 20.7511 221.432 21.0843 222.41 21.0843C223.13 21.0843 223.702 20.9177 224.089 20.5661C224.458 20.2884 224.68 19.8442 224.68 19.3814C224.68 18.9372 224.477 18.5115 224.126 18.2339C223.757 17.9007 222.89 17.5675 221.525 17.2714C219.292 16.7716 217.687 16.1053 216.746 15.2538C215.805 14.4579 215.27 13.2918 215.306 12.0517C215.306 11.2002 215.565 10.3488 216.045 9.64545C216.598 8.84954 217.355 8.22022 218.259 7.86854C219.237 7.44282 220.602 7.2207 222.318 7.2207C224.421 7.2207 226.027 7.6094 227.134 8.40531C228.241 9.18271 228.905 10.4414 229.108 12.1627L224.311 12.4404C224.182 11.7 223.923 11.1632 223.499 10.8115C223.075 10.4599 222.521 10.2933 221.801 10.2933C221.211 10.2933 220.768 10.4228 220.473 10.6635C220.196 10.8856 220.012 11.2188 220.03 11.5889C220.03 11.8666 220.178 12.1257 220.399 12.2923C220.639 12.5144 221.211 12.718 222.115 12.9031C224.348 13.3844 225.935 13.8656 226.912 14.3654C227.89 14.8651 228.592 15.4759 229.016 16.1978C229.459 16.9382 229.68 17.7896 229.662 18.6596C229.662 19.6961 229.367 20.7326 228.776 21.6026C228.167 22.5096 227.318 23.2129 226.322 23.6386C225.27 24.1014 223.942 24.342 222.355 24.342C219.55 24.342 217.613 23.8052 216.524 22.7132C215.436 21.6211 214.79 20.2514 214.661 18.5855ZM163.162 24.0643V7.51686H171.669C173.237 7.51686 174.455 7.64642 175.285 7.92406C176.097 8.1832 176.817 8.71997 177.296 9.44184C177.831 10.2378 178.09 11.1632 178.071 12.1257C178.127 13.7546 177.296 15.3094 175.876 16.1238C175.322 16.4384 174.713 16.6605 174.086 16.7716C174.547 16.9012 175.008 17.1233 175.414 17.3824C175.728 17.6416 175.986 17.9377 176.226 18.2524C176.503 18.567 176.743 18.9187 176.946 19.2889L179.418 24.0829H173.624L170.894 18.9927C170.543 18.3449 170.248 17.9192 169.971 17.7156C169.602 17.4565 169.159 17.3269 168.716 17.3269H168.274V24.0458H163.162V24.0643ZM168.274 14.2173H170.432C170.894 14.1803 171.336 14.1062 171.779 13.9952C172.111 13.9397 172.407 13.7546 172.61 13.4769C173.108 12.8106 173.034 11.8666 172.425 11.2928C172.093 11.0152 171.447 10.8671 170.525 10.8671H168.274V14.2173ZM162 38.2426L166.853 37.928C166.963 38.7239 167.166 39.3162 167.499 39.7419C168.015 40.4082 168.772 40.7599 169.75 40.7599C170.469 40.7599 171.041 40.5933 171.429 40.2416C171.798 39.9455 172.019 39.5198 172.019 39.057C172.019 38.6128 171.816 38.1871 171.466 37.9095C171.097 37.5763 170.229 37.2431 168.846 36.947C166.613 36.4472 165.008 35.7809 164.067 34.9294C163.126 34.1335 162.59 32.9674 162.627 31.7273C162.627 30.8758 162.886 30.0244 163.365 29.321C163.919 28.5251 164.675 27.8958 165.58 27.5441C166.558 27.1184 167.923 26.8963 169.639 26.8963C171.742 26.8963 173.348 27.285 174.455 28.0809C175.562 28.8768 176.208 30.117 176.411 31.8383L171.613 32.116C171.484 31.3756 171.226 30.8388 170.801 30.4871C170.395 30.1355 169.823 29.9689 169.104 29.9874C168.513 29.9874 168.071 30.117 167.775 30.3761C167.48 30.5982 167.314 30.9314 167.332 31.3016C167.332 31.5792 167.48 31.8383 167.702 32.0049C167.941 32.227 168.513 32.4306 169.418 32.6157C171.65 33.097 173.237 33.5782 174.215 34.078C175.193 34.5777 175.894 35.1886 176.318 35.9104C176.761 36.6508 176.983 37.5022 176.983 38.3537C176.983 39.3902 176.669 40.4082 176.097 41.2782C175.488 42.1851 174.639 42.8885 173.643 43.3142C172.591 43.777 171.263 44.0176 169.676 44.0176C166.871 44.0176 164.934 43.4808 163.845 42.3888C162.757 41.2782 162.148 39.9085 162 38.2426V38.2426Z" fill="white"/>
<path d="M186.541 36.9476L191.006 38.2988C190.766 39.4279 190.268 40.5015 189.585 41.4454C188.958 42.2784 188.128 42.9262 187.186 43.3519C186.227 43.7776 185.009 43.9998 183.533 43.9998C181.743 43.9998 180.267 43.7406 179.142 43.2224C177.998 42.7041 177.02 41.7786 176.189 40.4644C175.359 39.1503 174.953 37.4659 174.953 35.4113C174.953 32.6719 175.673 30.5619 177.13 29.0996C178.588 27.6374 180.636 26.897 183.293 26.897C185.378 26.897 187.002 27.3227 188.201 28.1556C189.382 29.0071 190.268 30.3027 190.858 32.0426L186.356 33.0421C186.245 32.6534 186.079 32.2647 185.858 31.9316C185.581 31.5429 185.231 31.2467 184.806 31.0246C184.382 30.8025 183.902 30.7099 183.422 30.7099C182.26 30.7099 181.374 31.1727 180.765 32.1167C180.304 32.8015 180.064 33.8936 180.064 35.3743C180.064 37.2068 180.341 38.4654 180.895 39.1503C181.448 39.8351 182.223 40.1683 183.238 40.1683C184.216 40.1683 184.954 39.8906 185.452 39.3539C185.95 38.7801 186.319 37.9842 186.541 36.9476ZM196.966 27.1746H202.058V32.9681H207.631V27.1746H212.76V43.7221H207.631V37.0217H202.058V43.7221H196.966V27.1746Z" fill="white"/>
<path d="M212.059 35.4478C212.059 32.7454 212.816 30.6354 214.31 29.1361C215.805 27.6368 217.908 26.8779 220.584 26.8779C223.333 26.8779 225.436 27.6183 226.931 29.0991C228.426 30.5798 229.164 32.6529 229.164 35.3183C229.164 37.2618 228.832 38.8351 228.186 40.0752C227.558 41.2968 226.58 42.2963 225.381 42.9627C224.145 43.6475 222.613 43.9992 220.787 43.9992C218.923 43.9992 217.392 43.7031 216.174 43.1108C214.919 42.4814 213.886 41.5004 213.203 40.2973C212.447 39.0017 212.059 37.3913 212.059 35.4478ZM217.152 35.4663C217.152 37.1322 217.465 38.3353 218.074 39.0757C218.683 39.7976 219.532 40.1678 220.602 40.1678C221.691 40.1678 222.54 39.8161 223.148 39.0942C223.757 38.3723 224.053 37.0952 224.053 35.2442C224.053 33.6894 223.739 32.5418 223.112 31.8385C222.484 31.1166 221.635 30.7649 220.565 30.7649C219.624 30.7279 218.72 31.1351 218.093 31.857C217.465 32.5789 217.152 33.782 217.152 35.4663ZM234.385 35.4478C234.385 32.7454 235.142 30.6354 236.637 29.1361C238.131 27.6368 240.235 26.8779 242.91 26.8779C245.659 26.8779 247.781 27.6183 249.257 29.0991C250.733 30.5798 251.49 32.6529 251.49 35.3183C251.49 37.2618 251.158 38.8351 250.512 40.0752C249.885 41.2968 248.907 42.2963 247.707 42.9627C246.471 43.6475 244.94 43.9992 243.113 43.9992C241.249 43.9992 239.718 43.7031 238.5 43.1108C237.245 42.4814 236.212 41.5004 235.529 40.2973C234.773 39.0017 234.385 37.3913 234.385 35.4478ZM239.478 35.4663C239.478 37.1322 239.792 38.3353 240.401 39.0757C241.01 39.7976 241.858 40.1678 242.928 40.1678C244.017 40.1678 244.866 39.8161 245.475 39.0942C246.084 38.3723 246.379 37.0952 246.379 35.2442C246.379 33.6894 246.065 32.5418 245.438 31.8385C244.811 31.1166 243.962 30.7649 242.892 30.7649C241.951 30.7279 241.028 31.1351 240.419 31.857C239.792 32.5789 239.478 33.782 239.478 35.4663Z" fill="white"/>
<path d="M250.955 27.1743H256.048V39.6497H264V43.7218H250.937V27.1743H250.955Z" fill="white"/>
<path d="M245.317 26.2222C250.44 22.3406 252.021 15.7628 248.849 11.5304C245.677 7.29792 238.952 7.01349 233.83 10.8951C228.707 14.7767 227.125 21.3544 230.297 25.5869C233.47 29.8193 240.194 30.1038 245.317 26.2222Z" stroke="white" stroke-width="1.17433" stroke-miterlimit="10"/>
<path d="M245.317 26.2222C250.44 22.3406 252.021 15.7628 248.849 11.5304C245.677 7.29792 238.952 7.01349 233.83 10.8951C228.707 14.7767 227.125 21.3544 230.297 25.5869C233.47 29.8193 240.194 30.1038 245.317 26.2222Z" stroke="white" stroke-width="1.17433" stroke-miterlimit="10"/>
<path d="M234.404 17.3458L236.249 16.0501L238.518 19.2893C238.906 19.8075 239.201 20.3628 239.423 20.9736C239.552 21.4364 239.515 21.9361 239.33 22.3803C239.09 22.9356 238.703 23.3984 238.186 23.7315C237.577 24.1573 237.061 24.3979 236.618 24.4719C236.194 24.546 235.751 24.4719 235.345 24.2868C234.902 24.0647 234.514 23.75 234.219 23.3428L235.806 21.8621C235.935 22.0657 236.101 22.2508 236.286 22.3989C236.415 22.4914 236.563 22.5469 236.729 22.5469C236.858 22.5469 236.987 22.4914 237.079 22.4174C237.264 22.3063 237.393 22.0842 237.374 21.8621C237.319 21.5474 237.19 21.2328 236.987 20.9921L234.404 17.3458ZM239.939 19.4003L241.618 18.0676C241.803 18.2897 242.043 18.4563 242.301 18.5489C242.67 18.6599 243.058 18.5859 243.371 18.3453C243.593 18.1972 243.777 17.9936 243.851 17.7345C243.962 17.4013 243.777 17.0311 243.445 16.92C243.39 16.9015 243.334 16.883 243.279 16.883C243.058 16.8645 242.67 16.9571 242.098 17.1977C241.157 17.5864 240.419 17.7345 239.865 17.6789C239.33 17.6234 238.832 17.3458 238.537 16.883C238.315 16.5684 238.205 16.1982 238.186 15.828C238.186 15.4023 238.297 14.9765 238.537 14.6249C238.887 14.1251 239.312 13.6994 239.829 13.3662C240.603 12.8294 241.286 12.5703 241.877 12.5703C242.467 12.5703 243.021 12.848 243.537 13.4217L241.877 14.7359C241.544 14.3102 240.917 14.2177 240.493 14.5508L240.437 14.6064C240.253 14.7174 240.124 14.884 240.05 15.0876C239.995 15.2357 240.031 15.4023 240.124 15.5318C240.198 15.6244 240.308 15.6984 240.437 15.6984C240.585 15.7169 240.843 15.6429 241.212 15.4763C242.135 15.0876 242.836 14.8655 243.316 14.7915C243.722 14.7174 244.146 14.7544 244.534 14.921C244.884 15.0691 245.179 15.3282 245.382 15.6429C245.641 16.0131 245.788 16.4573 245.807 16.92C245.825 17.4013 245.696 17.864 245.438 18.2712C245.106 18.771 244.681 19.1967 244.183 19.5299C243.168 20.2332 242.338 20.5294 241.674 20.4183C240.954 20.3073 240.364 19.9371 239.939 19.4003Z" fill="white"/>
</g>
<path d="M123.8 30C123.715 30 123.635 29.968 123.56 29.904C123.496 29.84 123.464 29.76 123.464 29.664C123.464 29.568 123.501 29.472 123.576 29.376L126.36 25.744L123.752 22.304C123.677 22.2187 123.64 22.1227 123.64 22.016C123.64 21.92 123.672 21.84 123.736 21.776C123.8 21.712 123.88 21.68 123.976 21.68H124.792C124.952 21.68 125.091 21.7653 125.208 21.936L127.336 24.704L129.464 21.952C129.528 21.8667 129.587 21.8027 129.64 21.76C129.704 21.7067 129.784 21.68 129.88 21.68H130.664C130.76 21.68 130.84 21.712 130.904 21.776C130.968 21.84 131 21.92 131 22.016C131 22.1227 130.963 22.2187 130.888 22.304L128.248 25.776L131.032 29.376C131.107 29.472 131.144 29.568 131.144 29.664C131.144 29.76 131.112 29.84 131.048 29.904C130.984 29.968 130.904 30 130.808 30H129.96C129.8 30 129.661 29.92 129.544 29.76L127.304 26.832L125.032 29.76C124.968 29.8347 124.904 29.8933 124.84 29.936C124.787 29.9787 124.712 30 124.616 30H123.8Z" fill="#FCFCFC"/>
<path d="M67.1807 14.5367V20.8217C67.1807 22.1981 66.7978 23.2521 66.0321 23.9839C65.2663 24.7244 64.209 25.0945 62.8603 25.0945C62.0858 25.0945 61.3766 24.9857 60.7327 24.7679C60.0887 24.5588 59.5405 24.2583 59.0881 23.8663L59.9104 22.2983C60.737 22.969 61.7029 23.3044 62.8081 23.3044C63.5738 23.3044 64.1394 23.1127 64.5049 22.7295C64.879 22.3375 65.0662 21.7364 65.0662 20.9263V20.3644C64.457 21.1135 63.5955 21.4881 62.4817 21.4881C61.3244 21.4881 60.4325 21.1615 59.806 20.5081C59.1881 19.8461 58.8792 18.8966 58.8792 17.6596V14.5367H60.9937V17.5289C60.9937 18.2433 61.1634 18.7833 61.5028 19.1492C61.8422 19.5151 62.3207 19.698 62.9386 19.698C63.5912 19.698 64.1089 19.5063 64.4918 19.1231C64.8747 18.7398 65.0662 18.1605 65.0662 17.3852V14.5367H67.1807ZM76.7373 22.8993C76.3021 23.1956 75.7539 23.4263 75.0926 23.5919C74.44 23.7574 73.7438 23.8401 73.0042 23.8401C72.0818 23.8401 71.2986 23.7269 70.6547 23.5004C70.0107 23.2652 69.5235 22.9429 69.1928 22.5335C68.8621 22.1153 68.6968 21.6406 68.6968 21.1092C68.6968 20.6214 68.8317 20.1902 69.1015 19.8156C69.3712 19.441 69.741 19.1623 70.2109 18.9793C69.8541 18.7877 69.5757 18.5263 69.3756 18.1953C69.1841 17.8644 69.0884 17.4941 69.0884 17.0847C69.0884 16.5881 69.2406 16.1351 69.5453 15.7257C69.8498 15.3164 70.311 14.9897 70.9288 14.7457C71.5466 14.5018 72.3037 14.3799 73.2 14.3799C73.7917 14.3799 74.3703 14.4409 74.936 14.5628C75.5016 14.6761 75.9933 14.8329 76.4109 15.0332L75.8236 16.6535C75.023 16.2789 74.1745 16.0916 73.2783 16.0916C72.5996 16.0916 72.0861 16.1961 71.7381 16.4052C71.3987 16.6055 71.2291 16.8799 71.2291 17.2284C71.2291 17.5508 71.3421 17.799 71.5684 17.9732C71.8034 18.1388 72.1558 18.2215 72.6257 18.2215H75.1187V19.894H72.4952C71.9643 19.894 71.5554 19.9855 71.2682 20.1684C70.981 20.3513 70.8375 20.617 70.8375 20.9655C70.8375 21.3313 71.0202 21.6188 71.3857 21.8279C71.7598 22.0282 72.3298 22.1284 73.0956 22.1284C73.6351 22.1284 74.1745 22.0588 74.7141 21.9193C75.2536 21.7713 75.7104 21.5665 76.0846 21.3052L76.7373 22.8993ZM88.4063 14.3799C89.4856 14.3799 90.3251 14.6978 90.9255 15.3337C91.5259 15.9609 91.8261 16.8713 91.8261 18.0647V23.6833H89.7116V18.13C89.7116 17.4854 89.5419 17.002 89.2025 16.6796C88.8721 16.3486 88.4324 16.1831 87.8842 16.1831C87.2838 16.1831 86.8049 16.3573 86.4484 16.7057C86.0919 17.0455 85.9133 17.5638 85.9133 18.2607V23.6833H83.7987V18.13C83.7987 17.4854 83.6421 17.002 83.3288 16.6796C83.0156 16.3486 82.5889 16.1831 82.0497 16.1831C81.4578 16.1831 80.9836 16.3573 80.6268 16.7057C80.27 17.0455 80.0916 17.5638 80.0916 18.2607V23.6833H77.9771V14.5367H80.0264V15.6604C80.3049 15.251 80.6747 14.9374 81.1358 14.7196C81.5969 14.4932 82.128 14.3799 82.7284 14.3799C83.3549 14.3799 83.9032 14.4975 84.3731 14.7327C84.843 14.9591 85.2043 15.2902 85.4564 15.7257C85.7697 15.2902 86.1784 14.9591 86.6834 14.7327C87.1965 14.4975 87.7708 14.3799 88.4063 14.3799ZM58.752 27.44H61.865C62.609 27.44 63.2649 27.5837 63.8327 27.8712C64.407 28.1521 64.8508 28.5507 65.1641 29.0668C65.4839 29.5829 65.6437 30.184 65.6437 30.87C65.6437 31.556 65.4839 32.1571 65.1641 32.6732C64.8508 33.1893 64.407 33.5911 63.8327 33.8786C63.2649 34.1595 62.609 34.3 61.865 34.3H58.752V27.44ZM61.7867 32.9966C62.472 32.9966 63.0169 32.8071 63.4215 32.4282C63.8327 32.0427 64.0383 31.5233 64.0383 30.87C64.0383 30.2167 63.8327 29.7005 63.4215 29.3216C63.0169 28.9361 62.472 28.7434 61.7867 28.7434H60.3378V32.9966H61.7867ZM66.732 29.0276H68.2592V34.3H66.732V29.0276ZM67.4956 28.2926C67.215 28.2926 66.9865 28.2109 66.8103 28.0476C66.6341 27.8843 66.546 27.6817 66.546 27.44C66.546 27.1983 66.6341 26.9957 66.8103 26.8324C66.9865 26.6691 67.215 26.5874 67.4956 26.5874C67.7762 26.5874 68.0046 26.6658 68.1809 26.8226C68.3571 26.9794 68.4452 27.1754 68.4452 27.4106C68.4452 27.6654 68.3571 27.8777 68.1809 28.0476C68.0046 28.2109 67.7762 28.2926 67.4956 28.2926ZM75.1097 29.0276V33.418C75.1097 34.3849 74.8584 35.1036 74.3559 35.574C73.8534 36.0444 73.1192 36.2796 72.1533 36.2796C71.6442 36.2796 71.1613 36.2175 70.7044 36.0934C70.2476 35.9693 69.869 35.7896 69.5688 35.5544L70.1758 34.4568C70.3977 34.6397 70.6783 34.7835 71.0177 34.888C71.357 34.9991 71.6964 35.0546 72.0358 35.0546C72.5644 35.0546 72.9527 34.9337 73.2007 34.692C73.4553 34.4568 73.5825 34.0975 73.5825 33.614V33.3886C73.1844 33.8263 72.6297 34.0452 71.9183 34.0452C71.4354 34.0452 70.9916 33.9407 70.5869 33.7316C70.1888 33.516 69.8723 33.2155 69.6374 32.83C69.4024 32.4445 69.2849 32.0003 69.2849 31.4972C69.2849 30.9941 69.4024 30.5499 69.6374 30.1644C69.8723 29.7789 70.1888 29.4817 70.5869 29.2726C70.9916 29.057 71.4354 28.9492 71.9183 28.9492C72.6819 28.9492 73.2627 29.2007 73.6608 29.7038V29.0276H75.1097ZM72.2218 32.7908C72.6264 32.7908 72.956 32.6732 73.2105 32.438C73.4716 32.1963 73.6021 31.8827 73.6021 31.4972C73.6021 31.1117 73.4716 30.8014 73.2105 30.5662C72.956 30.3245 72.6264 30.2036 72.2218 30.2036C71.8172 30.2036 71.4843 30.3245 71.2233 30.5662C70.9622 30.8014 70.8317 31.1117 70.8317 31.4972C70.8317 31.8827 70.9622 32.1963 71.2233 32.438C71.4843 32.6732 71.8172 32.7908 72.2218 32.7908ZM76.531 29.0276H78.0582V34.3H76.531V29.0276ZM77.2946 28.2926C77.014 28.2926 76.7856 28.2109 76.6093 28.0476C76.4331 27.8843 76.345 27.6817 76.345 27.44C76.345 27.1983 76.4331 26.9957 76.6093 26.8324C76.7856 26.6691 77.014 26.5874 77.2946 26.5874C77.5752 26.5874 77.8037 26.6658 77.9799 26.8226C78.1561 26.9794 78.2442 27.1754 78.2442 27.4106C78.2442 27.6654 78.1561 27.8777 77.9799 28.0476C77.8037 28.2109 77.5752 28.2926 77.2946 28.2926ZM82.6477 34.0452C82.4976 34.1563 82.3116 34.2412 82.0897 34.3C81.8743 34.3523 81.6491 34.3784 81.4139 34.3784C80.7808 34.3784 80.2946 34.2183 79.9552 33.8982C79.6159 33.5781 79.4462 33.1077 79.4462 32.487V27.8614H80.9733V29.1452H82.2757V30.3212H80.9733V32.4674C80.9733 32.6895 81.0288 32.8627 81.1398 32.9868C81.2507 33.1044 81.4106 33.1632 81.6198 33.1632C81.8547 33.1632 82.0636 33.0979 82.2463 32.9672L82.6477 34.0452ZM88.6927 29.0276V34.3H87.234V33.6924C86.8555 34.1497 86.3073 34.3784 85.5894 34.3784C85.0934 34.3784 84.6431 34.2673 84.2384 34.0452C83.8403 33.8231 83.5271 33.5062 83.2987 33.0946C83.0702 32.683 82.956 32.2061 82.956 31.6638C82.956 31.1215 83.0702 30.6446 83.2987 30.233C83.5271 29.8214 83.8403 29.5045 84.2384 29.2824C84.6431 29.0603 85.0934 28.9492 85.5894 28.9492C86.2616 28.9492 86.787 29.1615 87.1655 29.5862V29.0276H88.6927ZM85.8537 33.124C86.2388 33.124 86.5586 32.9933 86.8131 32.732C87.0676 32.4641 87.1949 32.1081 87.1949 31.6638C87.1949 31.2195 87.0676 30.8667 86.8131 30.6054C86.5586 30.3375 86.2388 30.2036 85.8537 30.2036C85.4621 30.2036 85.1391 30.3375 84.8846 30.6054C84.63 30.8667 84.5028 31.2195 84.5028 31.6638C84.5028 32.1081 84.63 32.4641 84.8846 32.732C85.1391 32.9933 85.4621 33.124 85.8537 33.124ZM91.9958 34.3784C91.4019 34.3784 90.9385 34.2216 90.6057 33.908C90.2728 33.5879 90.1064 33.1371 90.1064 32.5556V27.0284H91.6336V32.4674C91.6336 32.6895 91.6891 32.8627 91.8 32.9868C91.9175 33.1044 92.0806 33.1632 92.2895 33.1632C92.3678 33.1632 92.4461 33.1534 92.5244 33.1338C92.6093 33.1142 92.6745 33.0913 92.7202 33.0652L92.7887 34.251C92.5342 34.3359 92.2699 34.3784 91.9958 34.3784Z" fill="#F2F2F2"/>
<path d="M14.4175 13.5418C14.4508 13.5826 14.4805 13.616 14.5138 13.6568C14.7141 13.8982 14.9291 14.1617 15.1628 14.4439C15.2777 14.5849 15.4001 14.7297 15.5225 14.8782C16.1417 15.6243 16.8426 16.4707 17.5805 17.3541C17.8734 17.7068 18.1738 18.0668 18.4742 18.4269C18.7745 18.7871 19.0786 19.1508 19.3789 19.5109C19.3975 19.5332 19.416 19.5555 19.4346 19.5777C19.5717 19.741 19.7053 19.9043 19.8424 20.064C19.8647 20.09 19.8869 20.1197 19.9129 20.1457C20.0204 20.2718 20.1243 20.3981 20.2281 20.5243C20.2948 20.6059 20.3616 20.6839 20.4283 20.7656C20.4469 20.7879 20.4654 20.8101 20.4839 20.8324C20.5247 20.8843 20.5693 20.9326 20.6101 20.9846C20.6619 21.0477 20.7138 21.1108 20.7658 21.1739C20.788 21.2037 20.814 21.2296 20.8362 21.2593C20.8993 21.3335 20.9623 21.4115 21.0254 21.4857C21.0698 21.5377 21.1106 21.5897 21.1551 21.6416C21.2071 21.7048 21.2589 21.7679 21.3109 21.8309C21.3554 21.8866 21.4036 21.9387 21.448 21.9943C21.4703 22.0203 21.4926 22.05 21.5185 22.0759C21.589 22.1614 21.6594 22.2467 21.7299 22.3284C21.7522 22.3543 21.7744 22.3804 21.7966 22.4064C21.8374 22.4583 21.8819 22.5066 21.9227 22.5548C21.9672 22.6068 22.008 22.6588 22.0525 22.7107C22.0747 22.7367 22.0932 22.759 22.1155 22.785C22.3751 23.0931 22.6162 23.3864 22.8461 23.6573C22.8571 23.6684 22.8682 23.6833 22.8794 23.6945C22.9498 23.7762 23.0129 23.8541 23.0796 23.9321C23.1167 23.9766 23.1538 24.0212 23.1871 24.062C23.202 24.0805 23.2206 24.1028 23.2353 24.1214C23.3466 24.2513 23.4467 24.3738 23.5469 24.4925C23.6693 24.6373 23.7842 24.7747 23.8843 24.8934C23.914 24.9306 23.9399 24.9603 23.9659 24.9937L23.9696 24.9974C24.0772 25.1273 24.1735 25.2424 24.2514 25.3352C24.2514 25.3352 24.2514 25.3352 24.2551 25.3389C24.2922 25.3834 24.3293 25.4243 24.3589 25.4614C24.3664 25.4689 24.3738 25.4725 24.3812 25.48C24.422 25.5097 24.4887 25.5134 24.5295 25.48C24.5369 25.4725 24.5444 25.4689 24.5518 25.4614C24.5777 25.4317 24.6074 25.3946 24.6408 25.3575C24.663 25.3277 24.689 25.2981 24.7149 25.2684C24.7743 25.1979 24.841 25.1199 24.9115 25.0346C24.9374 25.0048 24.9597 24.9789 24.982 24.9491C24.9893 24.9417 24.993 24.9343 25.0005 24.9268C25.0375 24.8823 25.0783 24.8341 25.1191 24.7858C25.1191 24.7821 25.1228 24.7821 25.1228 24.7821C25.1562 24.7413 25.1932 24.6967 25.2304 24.6522C25.2563 24.6188 25.286 24.5854 25.3156 24.5482C25.4195 24.4221 25.5307 24.2921 25.6494 24.1473C25.6642 24.1288 25.679 24.1102 25.6976 24.0916C25.7458 24.0323 25.8014 23.9691 25.8533 23.906C25.9015 23.8504 25.9497 23.7909 25.9979 23.7316C26.1648 23.5312 26.3428 23.3196 26.5282 23.0968C26.5653 23.0559 26.5987 23.0114 26.6357 22.9706C26.6469 22.9557 26.6617 22.9409 26.6728 22.926C26.7247 22.863 26.7804 22.7998 26.8322 22.733C26.8879 22.6662 26.9435 22.5993 27.0028 22.5289C27.0362 22.488 27.0696 22.4509 27.1029 22.41C27.1178 22.3915 27.1326 22.3766 27.1475 22.3581C27.2253 22.2616 27.3069 22.165 27.3885 22.0685C27.4107 22.0425 27.4292 22.0203 27.4515 21.9943C27.4775 21.9646 27.5035 21.9349 27.5257 21.9052C27.7259 21.6676 27.9299 21.4226 28.1375 21.1702C28.1857 21.1108 28.2377 21.0514 28.2858 20.9921C28.2932 20.9846 28.3007 20.9734 28.3081 20.966C28.3712 20.8881 28.4379 20.8101 28.5046 20.7322C28.5603 20.6691 28.6121 20.6023 28.6678 20.5391C28.7716 20.4166 28.8755 20.2905 28.9793 20.1642C29.0089 20.1271 29.0386 20.09 29.072 20.0529C29.2055 19.8932 29.339 19.7336 29.4725 19.574C29.491 19.5555 29.5058 19.5332 29.5244 19.5146C29.8247 19.1546 30.1251 18.7907 30.4291 18.4307C30.7295 18.0706 31.0299 17.7105 31.3228 17.3579C32.0571 16.4743 32.7616 15.628 33.3808 14.8818C33.5032 14.7334 33.6256 14.5886 33.7405 14.4475C33.9742 14.1655 34.1892 13.9018 34.3895 13.6606C34.4228 13.6198 34.4488 13.5864 34.4821 13.5492C31.8345 11.1364 28.3155 9.6626 24.4554 9.6626C20.584 9.6626 17.065 11.1326 14.4175 13.5418Z" fill="white"/>
<path d="M28.7267 31.6911C28.5153 31.498 28.1817 31.5537 28.037 31.8024L25.7751 35.7372L25.2151 36.7061C25.1113 36.8842 24.9222 36.9956 24.7146 36.9956H24.4476H24.188H24.1806C23.9729 36.9956 23.7801 36.8842 23.6762 36.7024L23.6726 36.6987L20.8543 31.7949C20.7134 31.5463 20.376 31.4942 20.1647 31.6836L18.0621 33.562L15.1401 36.1753C17.6876 38.2206 20.9211 39.4456 24.4438 39.4456C27.9666 39.4456 31.2001 38.2206 33.7512 36.1715L32.6277 35.1656L28.7267 31.6911Z" fill="white"/>
<path d="M12.8193 23.1714C12.137 22.0243 11.336 20.6769 10.6611 19.5372C10.6129 19.4556 10.5647 19.3739 10.5165 19.2959C9.89723 20.933 9.55615 22.7074 9.55615 24.5597C9.55615 26.5865 9.96029 28.5131 10.6945 30.2727L11.2619 29.5785L14.3099 25.8479C14.3137 25.8441 14.3396 25.8145 14.373 25.7699C14.3693 25.7662 14.3656 25.7624 14.3619 25.755C14.2691 25.6103 13.6239 24.5263 12.8193 23.1714Z" fill="white"/>
<path d="M24.4737 0C10.9575 0 0 10.9619 0 24.4851C0 38.0084 10.9575 48.9703 24.4737 48.9703C37.9898 48.9703 48.9474 38.0084 48.9474 24.4851C48.9474 10.9619 37.9898 0 24.4737 0ZM43.6076 37.3959H43.5965H35.1531C35.142 37.3959 35.1272 37.3922 35.1161 37.3885C35.1123 37.3922 35.1123 37.3922 35.1086 37.3959L35.1049 37.3922C32.2126 39.7976 28.497 41.2453 24.444 41.2453C20.3911 41.2453 16.6755 39.7976 13.7868 37.3922H13.7832C13.7794 37.3885 13.7794 37.3885 13.7757 37.3848C13.7646 37.3885 13.7535 37.3922 13.7386 37.3922H5.29522H5.28409C5.11723 37.3922 5.02823 37.1992 5.13206 37.073L9.42237 31.8203C8.35817 29.6227 7.76113 27.1578 7.76113 24.5519C7.76113 15.3348 15.2293 7.86227 24.444 7.86227C33.6587 7.86227 41.1269 15.3348 41.1269 24.5519C41.1269 27.1542 40.5299 29.619 39.4694 31.8166L41.0973 33.8063L43.7597 37.0656L43.7671 37.073C43.8635 37.2028 43.7745 37.3959 43.6076 37.3959Z" fill="white"/>
<path d="M38.234 19.5337C37.5554 20.6734 36.7581 22.0209 36.0759 23.1679C35.2675 24.5265 34.626 25.6068 34.537 25.7552C34.5333 25.7589 34.5295 25.7627 34.5259 25.7663L34.5814 25.8369C34.5852 25.8406 34.5852 25.8443 34.5889 25.848L38.1969 30.2654C38.9274 28.5059 39.3316 26.5793 39.3316 24.5562C39.3316 22.7038 38.9905 20.9331 38.3749 19.2998C38.3267 19.3778 38.2822 19.4557 38.234 19.5337Z" fill="white"/>
<defs>
<clipPath id="clip0">
<rect width="102" height="38" fill="white" transform="translate(162 6)"/>
</clipPath>
</defs>
</svg>
