<svg width="128" height="176" viewBox="0 0 128 176" fill="none" xmlns="http://www.w3.org/2000/svg">
<path d="M85.2399 18.3932V26.3458C85.2399 28.0872 84.7541 29.421 83.7825 30.3468C82.8109 31.2837 81.4694 31.7522 79.7581 31.7522C78.7754 31.7522 77.8756 31.6144 77.0586 31.3388C76.2415 31.0743 75.5459 30.694 74.9719 30.198L76.0152 28.214C77.0641 29.0627 78.2896 29.4871 79.6919 29.4871C80.6634 29.4871 81.3811 29.2446 81.8449 28.7596C82.3195 28.2636 82.557 27.5031 82.557 26.478V25.7671C81.7841 26.715 80.691 27.189 79.2778 27.189C77.8094 27.189 76.6777 26.7756 75.8827 25.949C75.0988 25.1112 74.7069 23.9099 74.7069 22.3447V18.3932H77.3898V22.1794C77.3898 23.0832 77.6051 23.7666 78.0357 24.2295C78.4663 24.6924 79.0735 24.9239 79.8575 24.9239C80.6855 24.9239 81.3424 24.6814 81.8283 24.1964C82.3141 23.7115 82.557 22.9784 82.557 21.9975V18.3932H85.2399ZM97.3655 28.9746C96.8134 29.3493 96.1178 29.6414 95.2787 29.8508C94.4507 30.0603 93.5673 30.165 92.6289 30.165C91.4585 30.165 90.4649 30.0216 89.6479 29.7351C88.8308 29.4375 88.2125 29.0296 87.793 28.5116C87.3734 27.9826 87.1636 27.3819 87.1636 26.7095C87.1636 26.0923 87.3347 25.5467 87.6771 25.0727C88.0193 24.5987 88.4886 24.246 89.0848 24.0146C88.632 23.772 88.2787 23.4414 88.0248 23.0226C87.7819 22.6037 87.6605 22.1352 87.6605 21.6172C87.6605 20.989 87.8536 20.4158 88.2401 19.8978C88.6265 19.3797 89.2117 18.9664 89.9956 18.6578C90.7795 18.3491 91.7401 18.1948 92.8773 18.1948C93.6281 18.1948 94.3623 18.272 95.08 18.4263C95.7976 18.5696 96.4215 18.768 96.9514 19.0215L96.2062 21.0716C95.1903 20.5976 94.1138 20.3607 92.9767 20.3607C92.1155 20.3607 91.464 20.493 91.0225 20.7575C90.5919 21.011 90.3766 21.3582 90.3766 21.7991C90.3766 22.2069 90.52 22.5211 90.8072 22.7415C91.1053 22.9509 91.5524 23.0556 92.1486 23.0556H95.3119V25.1719H91.983C91.3095 25.1719 90.7906 25.2876 90.4262 25.5191C90.0619 25.7506 89.8797 26.0867 89.8797 26.5276C89.8797 26.9906 90.1116 27.3543 90.5753 27.6188C91.05 27.8723 91.7732 27.9991 92.7448 27.9991C93.4293 27.9991 94.1138 27.9109 94.7985 27.7346C95.483 27.5472 96.0626 27.2882 96.5374 26.9575L97.3655 28.9746ZM112.171 18.1948C113.541 18.1948 114.606 18.5971 115.368 19.4018C116.13 20.1954 116.51 21.3472 116.51 22.8572V29.9666H113.828V22.9399C113.828 22.1243 113.612 21.5125 113.182 21.1047C112.762 20.6859 112.204 20.4764 111.509 20.4764C110.747 20.4764 110.139 20.6968 109.687 21.1378C109.235 21.5676 109.008 22.2235 109.008 23.1052V29.9666H106.325V22.9399C106.325 22.1243 106.126 21.5125 105.729 21.1047C105.332 20.6859 104.79 20.4764 104.106 20.4764C103.355 20.4764 102.753 20.6968 102.301 21.1378C101.848 21.5676 101.622 22.2235 101.622 23.1052V29.9666H98.9386V18.3932H101.539V19.8151C101.892 19.2971 102.361 18.9003 102.946 18.6247C103.531 18.3381 104.205 18.1948 104.967 18.1948C105.762 18.1948 106.458 18.3436 107.054 18.6412C107.65 18.9278 108.109 19.3467 108.428 19.8978C108.826 19.3467 109.345 18.9278 109.985 18.6412C110.636 18.3436 111.365 18.1948 112.171 18.1948ZM74.5454 34.7199H78.4953C79.4393 34.7199 80.2715 34.9018 80.9919 35.2655C81.7206 35.621 82.2837 36.1252 82.6812 36.7783C83.087 37.4314 83.2898 38.1919 83.2898 39.0599C83.2898 39.9279 83.087 40.6884 82.6812 41.3415C82.2837 41.9946 81.7206 42.503 80.9919 42.8667C80.2715 43.2222 79.4393 43.3999 78.4953 43.3999H74.5454V34.7199ZM78.3959 41.7507C79.2654 41.7507 79.9568 41.511 80.4703 41.0315C80.9919 40.5438 81.2528 39.8866 81.2528 39.0599C81.2528 38.2332 80.9919 37.5802 80.4703 37.1007C79.9568 36.613 79.2654 36.3691 78.3959 36.3691H76.5576V41.7507H78.3959ZM84.6706 36.7287H86.6083V43.3999H84.6706V36.7287ZM85.6395 35.7987C85.2834 35.7987 84.9936 35.6954 84.77 35.4887C84.5464 35.282 84.4346 35.0258 84.4346 34.7199C84.4346 34.414 84.5464 34.1578 84.77 33.9511C84.9936 33.7444 85.2834 33.6411 85.6395 33.6411C85.9956 33.6411 86.2854 33.7403 86.509 33.9387C86.7325 34.1371 86.8443 34.3851 86.8443 34.6827C86.8443 35.0051 86.7325 35.2738 86.509 35.4887C86.2854 35.6954 85.9956 35.7987 85.6395 35.7987ZM95.3004 36.7287V42.2839C95.3004 43.5074 94.9816 44.4167 94.3439 45.0119C93.7063 45.6071 92.7748 45.9047 91.5492 45.9047C90.9033 45.9047 90.2905 45.8262 89.7109 45.6691C89.1312 45.512 88.651 45.2847 88.2701 44.9871L89.0402 43.5983C89.3217 43.8298 89.6778 44.0116 90.1084 44.1439C90.539 44.2844 90.9696 44.3547 91.4002 44.3547C92.0709 44.3547 92.5636 44.2018 92.8783 43.8959C93.2012 43.5983 93.3627 43.1436 93.3627 42.5319V42.2467C92.8576 42.8006 92.1537 43.0775 91.2511 43.0775C90.6383 43.0775 90.0752 42.9452 89.5618 42.6807C89.0567 42.4079 88.6551 42.0276 88.357 41.5399C88.0589 41.0522 87.9098 40.49 87.9098 39.8535C87.9098 39.217 88.0589 38.6548 88.357 38.1671C88.6551 37.6794 89.0567 37.3032 89.5618 37.0387C90.0752 36.7659 90.6383 36.6295 91.2511 36.6295C92.2199 36.6295 92.9569 36.9478 93.4621 37.5843V36.7287H95.3004ZM91.6362 41.4903C92.1496 41.4903 92.5677 41.3415 92.8907 41.0439C93.2219 40.738 93.3875 40.3412 93.3875 39.8535C93.3875 39.3658 93.2219 38.9731 92.8907 38.6755C92.5677 38.3696 92.1496 38.2167 91.6362 38.2167C91.1228 38.2167 90.7004 38.3696 90.3692 38.6755C90.038 38.9731 89.8724 39.3658 89.8724 39.8535C89.8724 40.3412 90.038 40.738 90.3692 41.0439C90.7004 41.3415 91.1228 41.4903 91.6362 41.4903ZM97.1038 36.7287H99.0415V43.3999H97.1038V36.7287ZM98.0726 35.7987C97.7166 35.7987 97.4268 35.6954 97.2032 35.4887C96.9796 35.282 96.8678 35.0258 96.8678 34.7199C96.8678 34.414 96.9796 34.1578 97.2032 33.9511C97.4268 33.7444 97.7166 33.6411 98.0726 33.6411C98.4287 33.6411 98.7185 33.7403 98.9421 33.9387C99.1657 34.1371 99.2775 34.3851 99.2775 34.6827C99.2775 35.0051 99.1657 35.2738 98.9421 35.4887C98.7185 35.6954 98.4287 35.7987 98.0726 35.7987ZM104.865 43.0775C104.674 43.218 104.438 43.3255 104.157 43.3999C103.883 43.466 103.598 43.4991 103.299 43.4991C102.496 43.4991 101.879 43.2966 101.448 42.8915C101.018 42.4864 100.803 41.8912 100.803 41.1059V35.2531H102.74V36.8775H104.393V38.3655H102.74V41.0811C102.74 41.3622 102.811 41.5812 102.951 41.7383C103.092 41.8871 103.295 41.9615 103.56 41.9615C103.859 41.9615 104.124 41.8788 104.355 41.7135L104.865 43.0775ZM112.535 36.7287V43.3999H110.684V42.6311C110.204 43.2098 109.508 43.4991 108.597 43.4991C107.968 43.4991 107.397 43.3586 106.883 43.0775C106.378 42.7964 105.981 42.3955 105.691 41.8747C105.401 41.3539 105.256 40.7504 105.256 40.0643C105.256 39.3782 105.401 38.7747 105.691 38.2539C105.981 37.7331 106.378 37.3322 106.883 37.0511C107.397 36.77 107.968 36.6295 108.597 36.6295C109.45 36.6295 110.117 36.8982 110.597 37.4355V36.7287H112.535ZM108.933 41.9119C109.421 41.9119 109.827 41.7466 110.15 41.4159C110.473 41.077 110.634 40.6264 110.634 40.0643C110.634 39.5022 110.473 39.0558 110.15 38.7251C109.827 38.3862 109.421 38.2167 108.933 38.2167C108.436 38.2167 108.026 38.3862 107.703 38.7251C107.38 39.0558 107.218 39.5022 107.218 40.0643C107.218 40.6264 107.38 41.077 107.703 41.4159C108.026 41.7466 108.436 41.9119 108.933 41.9119ZM116.726 43.4991C115.972 43.4991 115.384 43.3007 114.962 42.9039C114.54 42.4988 114.328 41.9284 114.328 41.1927V34.1991H116.266V41.0811C116.266 41.3622 116.337 41.5812 116.477 41.7383C116.626 41.8871 116.833 41.9615 117.098 41.9615C117.198 41.9615 117.297 41.9491 117.396 41.9243C117.504 41.8995 117.587 41.8706 117.645 41.8375L117.732 43.3379C117.409 43.4454 117.074 43.4991 116.726 43.4991Z" fill="#F2F2F2"/>
<path d="M18.293 17.1349C18.3353 17.1866 18.3729 17.2288 18.4152 17.2805C18.6693 17.5858 18.9422 17.9193 19.2386 18.2763C19.3845 18.4548 19.5397 18.638 19.695 18.8258C20.4807 19.7699 21.37 20.8408 22.3062 21.9587C22.6779 22.4049 23.059 22.8605 23.4401 23.3161C23.8213 23.7718 24.207 24.232 24.5882 24.6876C24.6117 24.7158 24.6352 24.7441 24.6588 24.7722C24.8328 24.9788 25.0022 25.1855 25.1762 25.3875C25.2045 25.4204 25.2327 25.458 25.2656 25.4908C25.4021 25.6505 25.5338 25.8102 25.6656 25.9699C25.7503 26.0732 25.8349 26.1719 25.9196 26.2752C25.9432 26.3035 25.9667 26.3316 25.9902 26.3598C26.0419 26.4255 26.0985 26.4866 26.1502 26.5524C26.216 26.6322 26.2819 26.712 26.3478 26.7919C26.376 26.8295 26.409 26.8624 26.4371 26.8999C26.5172 26.9938 26.5972 27.0925 26.6772 27.1864C26.7336 27.2522 26.7853 27.318 26.8418 27.3837C26.9077 27.4636 26.9735 27.5435 27.0395 27.6232C27.0959 27.6937 27.157 27.7595 27.2135 27.8299C27.2417 27.8629 27.27 27.9004 27.3029 27.9332C27.3923 28.0413 27.4816 28.1493 27.5711 28.2526C27.5993 28.2855 27.6275 28.3185 27.6558 28.3513C27.7075 28.417 27.7639 28.4781 27.8157 28.5392C27.8722 28.6049 27.9239 28.6707 27.9804 28.7364C28.0086 28.7693 28.0321 28.7975 28.0604 28.8304C28.3897 29.2202 28.6956 29.5913 28.9873 29.9342C29.0014 29.9482 29.0154 29.967 29.0296 29.9812C29.119 30.0845 29.199 30.1831 29.2836 30.2818C29.3307 30.3381 29.3777 30.3945 29.4201 30.4462C29.4389 30.4697 29.4625 30.4979 29.4812 30.5213C29.6224 30.6857 29.7494 30.8407 29.8765 30.991C30.0318 31.1742 30.1776 31.348 30.3046 31.4982C30.3423 31.5453 30.3752 31.5829 30.4082 31.6251L30.4128 31.6298C30.5493 31.7942 30.6716 31.9398 30.7704 32.0572C30.7704 32.0572 30.7704 32.0572 30.7751 32.0619C30.8222 32.1182 30.8693 32.1699 30.9069 32.2169C30.9163 32.2263 30.9257 32.231 30.9351 32.2404C30.9869 32.278 31.0715 32.2826 31.1233 32.2404C31.1327 32.231 31.1421 32.2263 31.1516 32.2169C31.1845 32.1793 31.2221 32.1324 31.2645 32.0854C31.2926 32.0478 31.3257 32.0103 31.3586 31.9726C31.4338 31.8835 31.5185 31.7848 31.6079 31.6768C31.6408 31.6392 31.6691 31.6063 31.6974 31.5687C31.7067 31.5593 31.7114 31.5499 31.7209 31.5405C31.7678 31.4842 31.8196 31.4231 31.8714 31.362C31.8714 31.3574 31.8761 31.3574 31.8761 31.3574C31.9185 31.3057 31.9654 31.2493 32.0125 31.193C32.0455 31.1507 32.0831 31.1085 32.1207 31.0614C32.2525 30.9018 32.3937 30.7374 32.5442 30.5542C32.563 30.5307 32.5818 30.5072 32.6053 30.4837C32.6665 30.4086 32.7371 30.3287 32.8029 30.2488C32.8641 30.1785 32.9253 30.1032 32.9865 30.0281C33.1982 29.7745 33.424 29.5068 33.6593 29.2249C33.7064 29.1732 33.7487 29.1169 33.7957 29.0653C33.8099 29.0464 33.8286 29.0276 33.8428 29.0088C33.9086 28.9291 33.9792 28.8492 34.045 28.7647C34.1156 28.6801 34.1862 28.5955 34.2615 28.5063C34.3038 28.4547 34.3461 28.4076 34.3885 28.356C34.4073 28.3325 34.4262 28.3137 34.445 28.2903C34.5437 28.1681 34.6473 28.046 34.7508 27.9238C34.779 27.891 34.8025 27.8629 34.8308 27.8299C34.8637 27.7924 34.8967 27.7548 34.9249 27.7172C35.179 27.4166 35.4377 27.1066 35.7012 26.7872C35.7624 26.712 35.8283 26.6369 35.8894 26.5618C35.8988 26.5524 35.9082 26.5382 35.9176 26.5288C35.9976 26.4302 36.0823 26.3316 36.167 26.233C36.2376 26.1531 36.3034 26.0686 36.374 25.9887C36.5058 25.8337 36.6375 25.6741 36.7693 25.5143C36.8069 25.4674 36.8445 25.4204 36.8869 25.3735C37.0562 25.1714 37.2257 24.9694 37.395 24.7675C37.4185 24.7441 37.4373 24.7158 37.4608 24.6924C37.8419 24.2368 38.2231 23.7764 38.6088 23.3208C38.99 22.8652 39.3711 22.4097 39.7428 21.9635C40.6744 20.8455 41.5683 19.7747 42.354 18.8305C42.5093 18.6426 42.6645 18.4594 42.8104 18.281C43.1068 17.9241 43.3797 17.5905 43.6338 17.2852C43.6761 17.2336 43.709 17.1913 43.7514 17.1443C40.392 14.0913 35.927 12.2266 31.0292 12.2266C26.1172 12.2266 21.6522 14.0866 18.293 17.1349Z" fill="white"/>
<path d="M36.4486 40.0988C36.1804 39.8546 35.757 39.925 35.5735 40.2397L32.7035 45.2185L31.9931 46.4444C31.8613 46.6698 31.6214 46.8108 31.3579 46.8108H31.0191H30.6898H30.6804C30.4169 46.8108 30.1722 46.6698 30.0405 46.4397L30.0358 46.435L26.46 40.2303C26.2812 39.9156 25.8531 39.8498 25.5849 40.0894L22.9172 42.4661L19.2097 45.7728C22.442 48.3608 26.5448 49.9108 31.0144 49.9108C35.4841 49.9108 39.5869 48.3608 42.8238 45.768L41.3983 44.4952L36.4486 40.0988Z" fill="white"/>
<path d="M16.2651 29.3187C15.3994 27.8673 14.3831 26.1624 13.5268 24.7204C13.4656 24.6171 13.4044 24.5137 13.3433 24.415C12.5575 26.4865 12.1248 28.7316 12.1248 31.0754C12.1248 33.6399 12.6375 36.0777 13.5691 38.3041L14.289 37.4257L18.1564 32.7053C18.1612 32.7005 18.1941 32.663 18.2364 32.6066C18.2318 32.6019 18.227 32.5972 18.2224 32.5878C18.1047 32.4047 17.286 31.0331 16.2651 29.3187Z" fill="white"/>
<path d="M31.0526 0C13.9031 0 0 13.8701 0 30.9812C0 48.0923 13.9031 61.9624 31.0526 61.9624C48.2022 61.9624 62.1053 48.0923 62.1053 30.9812C62.1053 13.8701 48.2022 0 31.0526 0ZM55.3301 47.3173H55.316H44.6029C44.5888 47.3173 44.57 47.3126 44.5559 47.3079C44.5511 47.3126 44.5511 47.3126 44.5465 47.3173L44.5417 47.3126C40.8719 50.3562 36.1575 52.188 31.015 52.188C25.8725 52.188 21.1581 50.3562 17.493 47.3126H17.4883C17.4836 47.3079 17.4836 47.3079 17.4789 47.3032C17.4647 47.3079 17.4506 47.3126 17.4318 47.3126H6.71866H6.70454C6.49283 47.3126 6.37991 47.0683 6.51164 46.9087L11.9553 40.2624C10.605 37.4818 9.84745 34.363 9.84745 31.0657C9.84745 19.4032 19.3232 9.94818 31.015 9.94818C42.7068 9.94818 52.1825 19.4032 52.1825 31.0657C52.1825 34.3583 51.425 37.4771 50.0794 40.2577L52.1449 42.7754L55.523 46.8993L55.5325 46.9087C55.6548 47.073 55.5419 47.3173 55.3301 47.3173Z" fill="white"/>
<path d="M48.5123 24.7159C47.6513 26.1579 46.6397 27.8629 45.774 29.3142C44.7484 31.0333 43.9344 32.4001 43.8214 32.588C43.8168 32.5927 43.812 32.5974 43.8074 32.6021L43.8779 32.6913C43.8826 32.696 43.8826 32.7007 43.8873 32.7054L48.4653 38.2948C49.3921 36.0685 49.905 33.6307 49.905 31.0709C49.905 28.7271 49.4721 26.4866 48.691 24.4199C48.63 24.5186 48.5734 24.6172 48.5123 24.7159Z" fill="white"/>
<path d="M59.8 101C59.7147 101 59.6347 100.968 59.56 100.904C59.496 100.84 59.464 100.76 59.464 100.664C59.464 100.568 59.5013 100.472 59.576 100.376L62.36 96.744L59.752 93.304C59.6773 93.2187 59.64 93.1227 59.64 93.016C59.64 92.92 59.672 92.84 59.736 92.776C59.8 92.712 59.88 92.68 59.976 92.68H60.792C60.952 92.68 61.0907 92.7653 61.208 92.936L63.336 95.704L65.464 92.952C65.528 92.8667 65.5867 92.8027 65.64 92.76C65.704 92.7067 65.784 92.68 65.88 92.68H66.664C66.76 92.68 66.84 92.712 66.904 92.776C66.968 92.84 67 92.92 67 93.016C67 93.1227 66.9627 93.2187 66.888 93.304L64.248 96.776L67.032 100.376C67.1067 100.472 67.144 100.568 67.144 100.664C67.144 100.76 67.112 100.84 67.048 100.904C66.984 100.968 66.904 101 66.808 101H65.96C65.8 101 65.6613 100.92 65.544 100.76L63.304 97.832L61.032 100.76C60.968 100.835 60.904 100.893 60.84 100.936C60.7867 100.979 60.712 101 60.616 101H59.8Z" fill="#FCFCFC"/>
<g clip-path="url(#clip0)">
<path d="M66.0842 144.566L72.1739 144.177C72.3129 145.161 72.5676 145.894 72.9843 146.421C73.6558 147.245 74.582 147.657 75.8092 147.657C76.7123 147.657 77.4301 147.451 77.9163 147.016C78.3794 146.672 78.6573 146.123 78.6573 145.551C78.6573 145.001 78.4026 144.475 77.9626 144.131C77.4995 143.719 76.4113 143.307 74.6978 142.941C71.8961 142.323 69.8816 141.499 68.7007 140.445C67.5198 139.461 66.8483 138.019 66.8946 136.485C66.8946 135.432 67.2188 134.379 67.8208 133.509C68.5154 132.524 69.4648 131.746 70.5994 131.311C71.8266 130.784 73.5401 130.51 75.6935 130.51C78.3331 130.51 80.3476 130.991 81.7369 131.975C83.1262 132.936 83.9597 134.493 84.2144 136.622L78.1942 136.966C78.0321 136.05 77.7079 135.386 77.1754 134.951C76.6428 134.516 75.9482 134.31 75.0451 134.31C74.3042 134.31 73.7484 134.47 73.378 134.768C73.0306 135.043 72.7991 135.455 72.8223 135.913C72.8223 136.256 73.0075 136.576 73.2853 136.783C73.5864 137.057 74.3042 137.309 75.4388 137.538C78.2405 138.133 80.2318 138.728 81.459 139.347C82.6862 139.965 83.5661 140.72 84.0987 141.613C84.6544 142.529 84.9322 143.582 84.9091 144.658C84.9091 145.94 84.5386 147.222 83.7977 148.298C83.0335 149.42 81.9684 150.29 80.7181 150.816C79.3982 151.388 77.7311 151.686 75.7398 151.686C72.2202 151.686 69.789 151.022 68.4228 149.671C67.0567 148.321 66.2463 146.627 66.0842 144.566ZM1.459 151.343V130.876H12.1334C14.1015 130.876 15.6298 131.036 16.6717 131.38C17.6906 131.7 18.5936 132.364 19.1956 133.257C19.8671 134.241 20.1913 135.386 20.1681 136.576C20.2376 138.591 19.1956 140.514 17.4127 141.521C16.718 141.911 15.9539 142.185 15.1667 142.323C15.7455 142.483 16.3244 142.758 16.8338 143.078C17.2275 143.399 17.5516 143.765 17.8526 144.154C18.2 144.543 18.501 144.978 18.7557 145.436L21.8584 151.366H14.5878L11.1609 145.07C10.7209 144.269 10.3505 143.742 10.0031 143.49C9.54004 143.17 8.98433 143.01 8.42861 143.01H7.87289V151.32H1.459V151.343ZM7.87289 139.163H10.582C11.1609 139.118 11.7166 139.026 12.2723 138.889C12.6891 138.82 13.0596 138.591 13.3143 138.248C13.9395 137.424 13.8468 136.256 13.0827 135.546C12.6659 135.203 11.8555 135.02 10.6978 135.02H7.87289V139.163ZM0.000244141 168.879L6.08997 168.49C6.2289 169.474 6.4836 170.207 6.90039 170.733C7.54873 171.558 8.49807 171.992 9.72528 171.992C10.6283 171.992 11.3461 171.786 11.8324 171.351C12.2955 170.985 12.5733 170.459 12.5733 169.886C12.5733 169.337 12.3186 168.81 11.8787 168.467C11.4156 168.055 10.3273 167.643 8.59069 167.276C5.78896 166.658 3.77448 165.834 2.59359 164.781C1.41269 163.797 0.741199 162.354 0.787509 160.821C0.787509 159.767 1.11168 158.714 1.7137 157.844C2.40835 156.86 3.3577 156.082 4.49229 155.647C5.71949 155.12 7.43295 154.845 9.58635 154.845C12.226 154.845 14.2405 155.326 15.6298 156.311C17.0191 157.295 17.8295 158.829 18.0842 160.958L12.0639 161.301C11.9018 160.386 11.5777 159.722 11.0451 159.287C10.5357 158.852 9.8179 158.646 8.91486 158.669C8.17391 158.669 7.61819 158.829 7.24771 159.149C6.87723 159.424 6.66884 159.836 6.692 160.294C6.692 160.637 6.87723 160.958 7.15509 161.164C7.45611 161.439 8.17391 161.69 9.30849 161.919C12.1102 162.515 14.1015 163.11 15.3288 163.728C16.556 164.346 17.4358 165.102 17.9684 165.994C18.5241 166.91 18.802 167.963 18.802 169.016C18.802 170.298 18.4084 171.558 17.6906 172.633C16.9264 173.755 15.8613 174.625 14.611 175.152C13.2911 175.724 11.624 176.022 9.63266 176.022C6.11312 176.022 3.68187 175.358 2.31573 174.007C0.949593 172.633 0.185483 170.939 0.000244141 168.879H0.000244141Z" fill="white"/>
<path d="M30.7959 167.277L36.3994 168.948C36.0983 170.345 35.4732 171.673 34.6164 172.84C33.8292 173.871 32.7872 174.672 31.6063 175.198C30.4023 175.725 28.874 176 27.0216 176C24.7756 176 22.9232 175.679 21.5108 175.038C20.0752 174.397 18.848 173.252 17.806 171.627C16.764 170.002 16.2546 167.918 16.2546 165.377C16.2546 161.989 17.1577 159.379 18.9869 157.57C20.8161 155.762 23.3863 154.846 26.7206 154.846C29.3371 154.846 31.3748 155.373 32.8798 156.403C34.3617 157.456 35.4732 159.059 36.2141 161.211L30.5643 162.447C30.4254 161.966 30.217 161.485 29.9392 161.073C29.5918 160.592 29.1519 160.226 28.6193 159.951C28.0868 159.677 27.4847 159.562 26.8827 159.562C25.424 159.562 24.3125 160.135 23.5484 161.302C22.9695 162.149 22.6685 163.5 22.6685 165.331C22.6685 167.598 23.0159 169.155 23.7105 170.002C24.4051 170.849 25.3777 171.261 26.6512 171.261C27.8784 171.261 28.8046 170.917 29.4297 170.253C30.0549 169.544 30.518 168.559 30.7959 167.277ZM43.8784 155.19H50.2691V162.355H57.2619V155.19H63.6989V175.656H57.2619V167.369H50.2691V175.656H43.8784V155.19Z" fill="white"/>
<path d="M62.8191 165.422C62.8191 162.08 63.7684 159.47 65.644 157.616C67.5195 155.761 70.1592 154.823 73.5166 154.823C76.9667 154.823 79.6064 155.738 81.4819 157.57C83.3575 159.401 84.2836 161.965 84.2836 165.262C84.2836 167.666 83.8669 169.612 83.0564 171.146C82.2692 172.657 81.042 173.893 79.5369 174.717C77.9855 175.564 76.0637 175.999 73.7713 175.999C71.4327 175.999 69.5108 175.633 67.9826 174.9C66.4081 174.122 65.1114 172.908 64.2547 171.42C63.3053 169.818 62.8191 167.826 62.8191 165.422ZM69.2098 165.445C69.2098 167.506 69.6035 168.994 70.3676 169.909C71.1317 170.802 72.1968 171.26 73.5398 171.26C74.9059 171.26 75.9711 170.825 76.7352 169.932C77.4993 169.04 77.8697 167.46 77.8697 165.171C77.8697 163.247 77.4761 161.828 76.6889 160.958C75.9016 160.065 74.8365 159.63 73.4935 159.63C72.3126 159.585 71.178 160.088 70.3907 160.981C69.6035 161.874 69.2098 163.362 69.2098 165.445ZM90.8365 165.422C90.8365 162.08 91.7858 159.47 93.6614 157.616C95.5369 155.761 98.1766 154.823 101.534 154.823C104.984 154.823 107.647 155.738 109.499 157.57C111.352 159.401 112.301 161.965 112.301 165.262C112.301 167.666 111.884 169.612 111.074 171.146C110.287 172.657 109.059 173.893 107.554 174.717C106.003 175.564 104.081 175.999 101.789 175.999C99.4501 175.999 97.5282 175.633 96 174.9C94.4255 174.122 93.1288 172.908 92.2721 171.42C91.3227 169.818 90.8365 167.826 90.8365 165.422ZM97.2272 165.445C97.2272 167.506 97.6208 168.994 98.385 169.909C99.1491 170.802 100.214 171.26 101.557 171.26C102.923 171.26 103.988 170.825 104.753 169.932C105.517 169.04 105.887 167.46 105.887 165.171C105.887 163.247 105.493 161.828 104.706 160.958C103.919 160.065 102.854 159.63 101.511 159.63C100.33 159.585 99.1722 160.088 98.4081 160.981C97.6208 161.874 97.2272 163.362 97.2272 165.445Z" fill="white"/>
<path d="M111.63 155.189H118.02V170.62H128V175.656H111.606V155.189H111.63Z" fill="white"/>
<path d="M104.555 154.011C110.983 149.21 112.968 141.075 108.987 135.84C105.006 130.605 96.5677 130.253 90.139 135.054C83.7103 139.855 81.7258 147.991 85.7066 153.226C89.6874 158.461 98.1259 158.812 104.555 154.011Z" stroke="white" stroke-width="1.17433" stroke-miterlimit="10"/>
<path d="M104.555 154.011C110.983 149.21 112.968 141.075 108.987 135.84C105.006 130.605 96.5677 130.253 90.139 135.054C83.7103 139.855 81.7258 147.991 85.7066 153.226C89.6874 158.461 98.1259 158.812 104.555 154.011Z" stroke="white" stroke-width="1.17433" stroke-miterlimit="10"/>
<path d="M90.86 143.032L93.1755 141.43L96.0235 145.436C96.5098 146.077 96.8802 146.764 97.1581 147.52C97.3202 148.092 97.2739 148.71 97.0423 149.259C96.7413 149.946 96.2551 150.519 95.6067 150.931C94.8426 151.457 94.1943 151.755 93.6386 151.846C93.106 151.938 92.5503 151.846 92.0409 151.617C91.4851 151.343 90.9989 150.954 90.6284 150.45L92.6197 148.618C92.7818 148.87 92.9902 149.099 93.2218 149.282C93.3839 149.397 93.5691 149.465 93.7775 149.465C93.9396 149.465 94.1016 149.397 94.2174 149.305C94.449 149.168 94.6111 148.893 94.5879 148.618C94.5184 148.229 94.3564 147.84 94.1016 147.542L90.86 143.032ZM97.8064 145.574L99.9135 143.925C100.145 144.2 100.446 144.406 100.77 144.521C101.233 144.658 101.72 144.566 102.113 144.269C102.391 144.086 102.623 143.834 102.715 143.513C102.854 143.101 102.623 142.643 102.206 142.506C102.136 142.483 102.067 142.46 101.997 142.46C101.72 142.437 101.233 142.552 100.516 142.849C99.3347 143.33 98.4085 143.513 97.7138 143.445C97.0423 143.376 96.4171 143.032 96.0467 142.46C95.7688 142.071 95.6299 141.613 95.6067 141.155C95.6067 140.629 95.7456 140.102 96.0467 139.667C96.4866 139.049 97.0192 138.522 97.6675 138.11C98.64 137.446 99.4967 137.126 100.238 137.126C100.979 137.126 101.673 137.469 102.322 138.179L100.238 139.804C99.8209 139.278 99.0336 139.163 98.5011 139.576L98.4316 139.644C98.2001 139.782 98.038 139.988 97.9454 140.239C97.8759 140.423 97.9222 140.629 98.038 140.789C98.1306 140.903 98.2695 140.995 98.4316 140.995C98.6169 141.018 98.941 140.926 99.4041 140.72C100.562 140.239 101.442 139.965 102.044 139.873C102.553 139.782 103.086 139.827 103.572 140.033C104.012 140.217 104.382 140.537 104.637 140.926C104.961 141.384 105.147 141.934 105.17 142.506C105.193 143.101 105.031 143.673 104.707 144.177C104.29 144.795 103.757 145.322 103.132 145.734C101.859 146.604 100.817 146.97 99.983 146.833C99.0799 146.695 98.339 146.238 97.8064 145.574Z" fill="white"/>
</g>
<defs>
<clipPath id="clip0">
<rect width="128" height="47" fill="white" transform="translate(0 129)"/>
</clipPath>
</defs>
</svg>
